<?xml version="1.0" encoding="utf-8"?>
<!-- Generator: Adobe Illustrator 25.1.0, SVG Export Plug-In . SVG Version: 6.00 Build 0)  -->
<svg version="1.1" xmlns="http://www.w3.org/2000/svg" xmlns:xlink="http://www.w3.org/1999/xlink" x="0px" y="0px"
	 viewBox="0 0 120 120" style="enable-background:new 0 0 120 120;" xml:space="preserve">
<title>Load Balancer</title>
<metadata><?xpacket begin="﻿" id="W5M0MpCehiHzreSzNTczkc9d"?>
<x:xmpmeta xmlns:x="adobe:ns:meta/" x:xmptk="Adobe XMP Core 6.0-c002 79.164488, 2020/07/10-22:06:53        ">
   <rdf:RDF xmlns:rdf="http://www.w3.org/1999/02/22-rdf-syntax-ns#">
      <rdf:Description rdf:about=""
            xmlns:xmp="http://ns.adobe.com/xap/1.0/"
            xmlns:xmpMM="http://ns.adobe.com/xap/1.0/mm/"
            xmlns:stEvt="http://ns.adobe.com/xap/1.0/sType/ResourceEvent#"
            xmlns:lr="http://ns.adobe.com/lightroom/1.0/"
            xmlns:dc="http://purl.org/dc/elements/1.1/">
         <xmp:MetadataDate>2021-02-15T19:09:42-06:00</xmp:MetadataDate>
         <xmpMM:InstanceID>xmp.iid:b749c495-b532-4650-917c-7f704149d7b8</xmpMM:InstanceID>
         <xmpMM:DocumentID>xmp.did:5ed4f9a8-bb97-4ee3-9f83-57bd81a32a25</xmpMM:DocumentID>
         <xmpMM:OriginalDocumentID>xmp.did:5ed4f9a8-bb97-4ee3-9f83-57bd81a32a25</xmpMM:OriginalDocumentID>
         <xmpMM:History>
            <rdf:Seq>
               <rdf:li>
                  <rdf:Description>
                     <stEvt:action>saved</stEvt:action>
                     <stEvt:instanceID>xmp.iid:5ed4f9a8-bb97-4ee3-9f83-57bd81a32a25</stEvt:instanceID>
                     <stEvt:when>2021-02-15T14:55:01-06:00</stEvt:when>
                     <stEvt:softwareAgent>Adobe Bridge 2021 (Macintosh)</stEvt:softwareAgent>
                     <stEvt:changed>/metadata</stEvt:changed>
                  </rdf:Description>
               </rdf:li>
               <rdf:li>
                  <rdf:Description>
                     <stEvt:action>saved</stEvt:action>
                     <stEvt:instanceID>xmp.iid:b749c495-b532-4650-917c-7f704149d7b8</stEvt:instanceID>
                     <stEvt:when>2021-02-15T19:09:42-06:00</stEvt:when>
                     <stEvt:softwareAgent>Adobe Bridge 2021 (Macintosh)</stEvt:softwareAgent>
                     <stEvt:changed>/metadata</stEvt:changed>
                  </rdf:Description>
               </rdf:li>
            </rdf:Seq>
         </xmpMM:History>
         <lr:hierarchicalSubject>
            <rdf:Bag>
               <rdf:li>Category names|Networking Security</rdf:li>
               <rdf:li>Color[JW2]|2-Color</rdf:li>
               <rdf:li>Color[JW2]|Light Background</rdf:li>
               <rdf:li>General[JW1]|Arrow</rdf:li>
            </rdf:Bag>
         </lr:hierarchicalSubject>
         <dc:subject>
            <rdf:Bag>
               <rdf:li>Networking Security</rdf:li>
               <rdf:li>Icon</rdf:li>
               <rdf:li>2-Color</rdf:li>
               <rdf:li>Light Background</rdf:li>
               <rdf:li>Arrow</rdf:li>
            </rdf:Bag>
         </dc:subject>
         <dc:title>
            <rdf:Alt>
               <rdf:li xml:lang="x-default">Load Balancer</rdf:li>
            </rdf:Alt>
         </dc:title>
      </rdf:Description>
   </rdf:RDF>
</x:xmpmeta>
                                                                                                    
                                                                                                    
                                                                                                    
                                                                                                    
                                                                                                    
                                                                                                    
                                                                                                    
                                                                                                    
                                                                                                    
                                                                                                    
                                                 
<?xpacket end="w"?></metadata>
<style type="text/css">
	.st0{display:none;}
	.st1{display:inline;}
	.st2{fill:#FFFFFF;stroke:#EC008C;stroke-width:0.1;stroke-miterlimit:10;}
	.st3{fill:#1D428A;}
	.st4{fill:#0091DA;}
</style>
<g id="_x39_5x95_Grids" class="st0">
	<g class="st1">
		<rect x="11.9" y="12.2" class="st2" width="5" height="5"/>
		<rect x="16.9" y="12.2" class="st2" width="5" height="5"/>
		<rect x="21.9" y="12.2" class="st2" width="5" height="5"/>
		<rect x="26.9" y="12.2" class="st2" width="5" height="5"/>
		<rect x="31.9" y="12.2" class="st2" width="5" height="5"/>
		<rect x="36.9" y="12.2" class="st2" width="5" height="5"/>
		<rect x="41.9" y="12.2" class="st2" width="5" height="5"/>
		<rect x="46.9" y="12.2" class="st2" width="5" height="5"/>
		<rect x="51.9" y="12.2" class="st2" width="5" height="5"/>
		<rect x="56.9" y="12.2" class="st2" width="5" height="5"/>
		<rect x="61.9" y="12.2" class="st2" width="5" height="5"/>
		<rect x="66.9" y="12.2" class="st2" width="5" height="5"/>
		<rect x="71.9" y="12.2" class="st2" width="5" height="5"/>
		<rect x="76.9" y="12.2" class="st2" width="5" height="5"/>
		<rect x="81.9" y="12.2" class="st2" width="5" height="5"/>
		<rect x="86.9" y="12.2" class="st2" width="5" height="5"/>
		<rect x="91.9" y="12.2" class="st2" width="5" height="5"/>
		<rect x="96.9" y="12.2" class="st2" width="5" height="5"/>
		<rect x="101.9" y="12.2" class="st2" width="5" height="5"/>
		<rect x="11.9" y="17.2" class="st2" width="5" height="5"/>
		<rect x="16.9" y="17.2" class="st2" width="5" height="5"/>
		<rect x="21.9" y="17.2" class="st2" width="5" height="5"/>
		<rect x="26.9" y="17.2" class="st2" width="5" height="5"/>
		<rect x="31.9" y="17.2" class="st2" width="5" height="5"/>
		<rect x="36.9" y="17.2" class="st2" width="5" height="5"/>
		<rect x="41.9" y="17.2" class="st2" width="5" height="5"/>
		<rect x="46.9" y="17.2" class="st2" width="5" height="5"/>
		<rect x="51.9" y="17.2" class="st2" width="5" height="5"/>
		<rect x="56.9" y="17.2" class="st2" width="5" height="5"/>
		<rect x="61.9" y="17.2" class="st2" width="5" height="5"/>
		<rect x="66.9" y="17.2" class="st2" width="5" height="5"/>
		<rect x="71.9" y="17.2" class="st2" width="5" height="5"/>
		<rect x="76.9" y="17.2" class="st2" width="5" height="5"/>
		<rect x="81.9" y="17.2" class="st2" width="5" height="5"/>
		<rect x="86.9" y="17.2" class="st2" width="5" height="5"/>
		<rect x="91.9" y="17.2" class="st2" width="5" height="5"/>
		<rect x="96.9" y="17.2" class="st2" width="5" height="5"/>
		<rect x="101.9" y="17.2" class="st2" width="5" height="5"/>
		<rect x="11.9" y="22.2" class="st2" width="5" height="5"/>
		<rect x="16.9" y="22.2" class="st2" width="5" height="5"/>
		<rect x="21.9" y="22.2" class="st2" width="5" height="5"/>
		<rect x="26.9" y="22.2" class="st2" width="5" height="5"/>
		<rect x="31.9" y="22.2" class="st2" width="5" height="5"/>
		<rect x="36.9" y="22.2" class="st2" width="5" height="5"/>
		<rect x="41.9" y="22.2" class="st2" width="5" height="5"/>
		<rect x="46.9" y="22.2" class="st2" width="5" height="5"/>
		<rect x="51.9" y="22.2" class="st2" width="5" height="5"/>
		<rect x="56.9" y="22.2" class="st2" width="5" height="5"/>
		<rect x="61.9" y="22.2" class="st2" width="5" height="5"/>
		<rect x="66.9" y="22.2" class="st2" width="5" height="5"/>
		<rect x="71.9" y="22.2" class="st2" width="5" height="5"/>
		<rect x="76.9" y="22.2" class="st2" width="5" height="5"/>
		<rect x="81.9" y="22.2" class="st2" width="5" height="5"/>
		<rect x="86.9" y="22.2" class="st2" width="5" height="5"/>
		<rect x="91.9" y="22.2" class="st2" width="5" height="5"/>
		<rect x="96.9" y="22.2" class="st2" width="5" height="5"/>
		<rect x="101.9" y="22.2" class="st2" width="5" height="5"/>
		<rect x="11.9" y="27.2" class="st2" width="5" height="5"/>
		<rect x="16.9" y="27.2" class="st2" width="5" height="5"/>
		<rect x="21.9" y="27.2" class="st2" width="5" height="5"/>
		<rect x="26.9" y="27.2" class="st2" width="5" height="5"/>
		<rect x="31.9" y="27.2" class="st2" width="5" height="5"/>
		<rect x="36.9" y="27.2" class="st2" width="5" height="5"/>
		<rect x="41.9" y="27.2" class="st2" width="5" height="5"/>
		<rect x="46.9" y="27.2" class="st2" width="5" height="5"/>
		<rect x="51.9" y="27.2" class="st2" width="5" height="5"/>
		<rect x="56.9" y="27.2" class="st2" width="5" height="5"/>
		<rect x="61.9" y="27.2" class="st2" width="5" height="5"/>
		<rect x="66.9" y="27.2" class="st2" width="5" height="5"/>
		<rect x="71.9" y="27.2" class="st2" width="5" height="5"/>
		<rect x="76.9" y="27.2" class="st2" width="5" height="5"/>
		<rect x="81.9" y="27.2" class="st2" width="5" height="5"/>
		<rect x="86.9" y="27.2" class="st2" width="5" height="5"/>
		<rect x="91.9" y="27.2" class="st2" width="5" height="5"/>
		<rect x="96.9" y="27.2" class="st2" width="5" height="5"/>
		<rect x="101.9" y="27.2" class="st2" width="5" height="5"/>
		<rect x="11.9" y="32.2" class="st2" width="5" height="5"/>
		<rect x="16.9" y="32.2" class="st2" width="5" height="5"/>
		<rect x="21.9" y="32.2" class="st2" width="5" height="5"/>
		<rect x="26.9" y="32.2" class="st2" width="5" height="5"/>
		<rect x="31.9" y="32.2" class="st2" width="5" height="5"/>
		<rect x="36.9" y="32.2" class="st2" width="5" height="5"/>
		<rect x="41.9" y="32.2" class="st2" width="5" height="5"/>
		<rect x="46.9" y="32.2" class="st2" width="5" height="5"/>
		<rect x="51.9" y="32.2" class="st2" width="5" height="5"/>
		<rect x="56.9" y="32.2" class="st2" width="5" height="5"/>
		<rect x="61.9" y="32.2" class="st2" width="5" height="5"/>
		<rect x="66.9" y="32.2" class="st2" width="5" height="5"/>
		<rect x="71.9" y="32.2" class="st2" width="5" height="5"/>
		<rect x="76.9" y="32.2" class="st2" width="5" height="5"/>
		<rect x="81.9" y="32.2" class="st2" width="5" height="5"/>
		<rect x="86.9" y="32.2" class="st2" width="5" height="5"/>
		<rect x="91.9" y="32.2" class="st2" width="5" height="5"/>
		<rect x="96.9" y="32.2" class="st2" width="5" height="5"/>
		<rect x="101.9" y="32.2" class="st2" width="5" height="5"/>
		<rect x="11.9" y="37.2" class="st2" width="5" height="5"/>
		<rect x="16.9" y="37.2" class="st2" width="5" height="5"/>
		<rect x="21.9" y="37.2" class="st2" width="5" height="5"/>
		<rect x="26.9" y="37.2" class="st2" width="5" height="5"/>
		<rect x="31.9" y="37.2" class="st2" width="5" height="5"/>
		<rect x="36.9" y="37.2" class="st2" width="5" height="5"/>
		<rect x="41.9" y="37.2" class="st2" width="5" height="5"/>
		<rect x="46.9" y="37.2" class="st2" width="5" height="5"/>
		<rect x="51.9" y="37.2" class="st2" width="5" height="5"/>
		<rect x="56.9" y="37.2" class="st2" width="5" height="5"/>
		<rect x="61.9" y="37.2" class="st2" width="5" height="5"/>
		<rect x="66.9" y="37.2" class="st2" width="5" height="5"/>
		<rect x="71.9" y="37.2" class="st2" width="5" height="5"/>
		<rect x="76.9" y="37.2" class="st2" width="5" height="5"/>
		<rect x="81.9" y="37.2" class="st2" width="5" height="5"/>
		<rect x="86.9" y="37.2" class="st2" width="5" height="5"/>
		<rect x="91.9" y="37.2" class="st2" width="5" height="5"/>
		<rect x="96.9" y="37.2" class="st2" width="5" height="5"/>
		<rect x="101.9" y="37.2" class="st2" width="5" height="5"/>
		<rect x="11.9" y="42.2" class="st2" width="5" height="5"/>
		<rect x="16.9" y="42.2" class="st2" width="5" height="5"/>
		<rect x="21.9" y="42.2" class="st2" width="5" height="5"/>
		<rect x="26.9" y="42.2" class="st2" width="5" height="5"/>
		<rect x="31.9" y="42.2" class="st2" width="5" height="5"/>
		<rect x="36.9" y="42.2" class="st2" width="5" height="5"/>
		<rect x="41.9" y="42.2" class="st2" width="5" height="5"/>
		<rect x="46.9" y="42.2" class="st2" width="5" height="5"/>
		<rect x="51.9" y="42.2" class="st2" width="5" height="5"/>
		<rect x="56.9" y="42.2" class="st2" width="5" height="5"/>
		<rect x="61.9" y="42.2" class="st2" width="5" height="5"/>
		<rect x="66.9" y="42.2" class="st2" width="5" height="5"/>
		<rect x="71.9" y="42.2" class="st2" width="5" height="5"/>
		<rect x="76.9" y="42.2" class="st2" width="5" height="5"/>
		<rect x="81.9" y="42.2" class="st2" width="5" height="5"/>
		<rect x="86.9" y="42.2" class="st2" width="5" height="5"/>
		<rect x="91.9" y="42.2" class="st2" width="5" height="5"/>
		<rect x="96.9" y="42.2" class="st2" width="5" height="5"/>
		<rect x="101.9" y="42.2" class="st2" width="5" height="5"/>
		<rect x="11.9" y="47.2" class="st2" width="5" height="5"/>
		<rect x="16.9" y="47.2" class="st2" width="5" height="5"/>
		<rect x="21.9" y="47.2" class="st2" width="5" height="5"/>
		<rect x="26.9" y="47.2" class="st2" width="5" height="5"/>
		<rect x="31.9" y="47.2" class="st2" width="5" height="5"/>
		<rect x="36.9" y="47.2" class="st2" width="5" height="5"/>
		<rect x="41.9" y="47.2" class="st2" width="5" height="5"/>
		<rect x="46.9" y="47.2" class="st2" width="5" height="5"/>
		<rect x="51.9" y="47.2" class="st2" width="5" height="5"/>
		<rect x="56.9" y="47.2" class="st2" width="5" height="5"/>
		<rect x="61.9" y="47.2" class="st2" width="5" height="5"/>
		<rect x="66.9" y="47.2" class="st2" width="5" height="5"/>
		<rect x="71.9" y="47.2" class="st2" width="5" height="5"/>
		<rect x="76.9" y="47.2" class="st2" width="5" height="5"/>
		<rect x="81.9" y="47.2" class="st2" width="5" height="5"/>
		<rect x="86.9" y="47.2" class="st2" width="5" height="5"/>
		<rect x="91.9" y="47.2" class="st2" width="5" height="5"/>
		<rect x="96.9" y="47.2" class="st2" width="5" height="5"/>
		<rect x="101.9" y="47.2" class="st2" width="5" height="5"/>
		<rect x="11.9" y="52.2" class="st2" width="5" height="5"/>
		<rect x="16.9" y="52.2" class="st2" width="5" height="5"/>
		<rect x="21.9" y="52.2" class="st2" width="5" height="5"/>
		<rect x="26.9" y="52.2" class="st2" width="5" height="5"/>
		<rect x="31.9" y="52.2" class="st2" width="5" height="5"/>
		<rect x="36.9" y="52.2" class="st2" width="5" height="5"/>
		<rect x="41.9" y="52.2" class="st2" width="5" height="5"/>
		<rect x="46.9" y="52.2" class="st2" width="5" height="5"/>
		<rect x="51.9" y="52.2" class="st2" width="5" height="5"/>
		<rect x="56.9" y="52.2" class="st2" width="5" height="5"/>
		<rect x="61.9" y="52.2" class="st2" width="5" height="5"/>
		<rect x="66.9" y="52.2" class="st2" width="5" height="5"/>
		<rect x="71.9" y="52.2" class="st2" width="5" height="5"/>
		<rect x="76.9" y="52.2" class="st2" width="5" height="5"/>
		<rect x="81.9" y="52.2" class="st2" width="5" height="5"/>
		<rect x="86.9" y="52.2" class="st2" width="5" height="5"/>
		<rect x="91.9" y="52.2" class="st2" width="5" height="5"/>
		<rect x="96.9" y="52.2" class="st2" width="5" height="5"/>
		<rect x="101.9" y="52.2" class="st2" width="5" height="5"/>
		<rect x="11.9" y="57.2" class="st2" width="5" height="5"/>
		<rect x="16.9" y="57.2" class="st2" width="5" height="5"/>
		<rect x="21.9" y="57.2" class="st2" width="5" height="5"/>
		<rect x="26.9" y="57.2" class="st2" width="5" height="5"/>
		<rect x="31.9" y="57.2" class="st2" width="5" height="5"/>
		<rect x="36.9" y="57.2" class="st2" width="5" height="5"/>
		<rect x="41.9" y="57.2" class="st2" width="5" height="5"/>
		<rect x="46.9" y="57.2" class="st2" width="5" height="5"/>
		<rect x="51.9" y="57.2" class="st2" width="5" height="5"/>
		<rect x="56.9" y="57.2" class="st2" width="5" height="5"/>
		<rect x="61.9" y="57.2" class="st2" width="5" height="5"/>
		<rect x="66.9" y="57.2" class="st2" width="5" height="5"/>
		<rect x="71.9" y="57.2" class="st2" width="5" height="5"/>
		<rect x="76.9" y="57.2" class="st2" width="5" height="5"/>
		<rect x="81.9" y="57.2" class="st2" width="5" height="5"/>
		<rect x="86.9" y="57.2" class="st2" width="5" height="5"/>
		<rect x="91.9" y="57.2" class="st2" width="5" height="5"/>
		<rect x="96.9" y="57.2" class="st2" width="5" height="5"/>
		<rect x="101.9" y="57.2" class="st2" width="5" height="5"/>
		<rect x="11.9" y="62.2" class="st2" width="5" height="5"/>
		<rect x="16.9" y="62.2" class="st2" width="5" height="5"/>
		<rect x="21.9" y="62.2" class="st2" width="5" height="5"/>
		<rect x="26.9" y="62.2" class="st2" width="5" height="5"/>
		<rect x="31.9" y="62.2" class="st2" width="5" height="5"/>
		<rect x="36.9" y="62.2" class="st2" width="5" height="5"/>
		<rect x="41.9" y="62.2" class="st2" width="5" height="5"/>
		<rect x="46.9" y="62.2" class="st2" width="5" height="5"/>
		<rect x="51.9" y="62.2" class="st2" width="5" height="5"/>
		<rect x="56.9" y="62.2" class="st2" width="5" height="5"/>
		<rect x="61.9" y="62.2" class="st2" width="5" height="5"/>
		<rect x="66.9" y="62.2" class="st2" width="5" height="5"/>
		<rect x="71.9" y="62.2" class="st2" width="5" height="5"/>
		<rect x="76.9" y="62.2" class="st2" width="5" height="5"/>
		<rect x="81.9" y="62.2" class="st2" width="5" height="5"/>
		<rect x="86.9" y="62.2" class="st2" width="5" height="5"/>
		<rect x="91.9" y="62.2" class="st2" width="5" height="5"/>
		<rect x="96.9" y="62.2" class="st2" width="5" height="5"/>
		<rect x="101.9" y="62.2" class="st2" width="5" height="5"/>
		<rect x="11.9" y="67.2" class="st2" width="5" height="5"/>
		<rect x="16.9" y="67.2" class="st2" width="5" height="5"/>
		<rect x="21.9" y="67.2" class="st2" width="5" height="5"/>
		<rect x="26.9" y="67.2" class="st2" width="5" height="5"/>
		<rect x="31.9" y="67.2" class="st2" width="5" height="5"/>
		<rect x="36.9" y="67.2" class="st2" width="5" height="5"/>
		<rect x="41.9" y="67.2" class="st2" width="5" height="5"/>
		<rect x="46.9" y="67.2" class="st2" width="5" height="5"/>
		<rect x="51.9" y="67.2" class="st2" width="5" height="5"/>
		<rect x="56.9" y="67.2" class="st2" width="5" height="5"/>
		<rect x="61.9" y="67.2" class="st2" width="5" height="5"/>
		<rect x="66.9" y="67.2" class="st2" width="5" height="5"/>
		<rect x="71.9" y="67.2" class="st2" width="5" height="5"/>
		<rect x="76.9" y="67.2" class="st2" width="5" height="5"/>
		<rect x="81.9" y="67.2" class="st2" width="5" height="5"/>
		<rect x="86.9" y="67.2" class="st2" width="5" height="5"/>
		<rect x="91.9" y="67.2" class="st2" width="5" height="5"/>
		<rect x="96.9" y="67.2" class="st2" width="5" height="5"/>
		<rect x="101.9" y="67.2" class="st2" width="5" height="5"/>
		<rect x="11.9" y="72.2" class="st2" width="5" height="5"/>
		<rect x="16.9" y="72.2" class="st2" width="5" height="5"/>
		<rect x="21.9" y="72.2" class="st2" width="5" height="5"/>
		<rect x="26.9" y="72.2" class="st2" width="5" height="5"/>
		<rect x="31.9" y="72.2" class="st2" width="5" height="5"/>
		<rect x="36.9" y="72.2" class="st2" width="5" height="5"/>
		<rect x="41.9" y="72.2" class="st2" width="5" height="5"/>
		<rect x="46.9" y="72.2" class="st2" width="5" height="5"/>
		<rect x="51.9" y="72.2" class="st2" width="5" height="5"/>
		<rect x="56.9" y="72.2" class="st2" width="5" height="5"/>
		<rect x="61.9" y="72.2" class="st2" width="5" height="5"/>
		<rect x="66.9" y="72.2" class="st2" width="5" height="5"/>
		<rect x="71.9" y="72.2" class="st2" width="5" height="5"/>
		<rect x="76.9" y="72.2" class="st2" width="5" height="5"/>
		<rect x="81.9" y="72.2" class="st2" width="5" height="5"/>
		<rect x="86.9" y="72.2" class="st2" width="5" height="5"/>
		<rect x="91.9" y="72.2" class="st2" width="5" height="5"/>
		<rect x="96.9" y="72.2" class="st2" width="5" height="5"/>
		<rect x="101.9" y="72.2" class="st2" width="5" height="5"/>
		<rect x="11.9" y="77.2" class="st2" width="5" height="5"/>
		<rect x="16.9" y="77.2" class="st2" width="5" height="5"/>
		<rect x="21.9" y="77.2" class="st2" width="5" height="5"/>
		<rect x="26.9" y="77.2" class="st2" width="5" height="5"/>
		<rect x="31.9" y="77.2" class="st2" width="5" height="5"/>
		<rect x="36.9" y="77.2" class="st2" width="5" height="5"/>
		<rect x="41.9" y="77.2" class="st2" width="5" height="5"/>
		<rect x="46.9" y="77.2" class="st2" width="5" height="5"/>
		<rect x="51.9" y="77.2" class="st2" width="5" height="5"/>
		<rect x="56.9" y="77.2" class="st2" width="5" height="5"/>
		<rect x="61.9" y="77.2" class="st2" width="5" height="5"/>
		<rect x="66.9" y="77.2" class="st2" width="5" height="5"/>
		<rect x="71.9" y="77.2" class="st2" width="5" height="5"/>
		<rect x="76.9" y="77.2" class="st2" width="5" height="5"/>
		<rect x="81.9" y="77.2" class="st2" width="5" height="5"/>
		<rect x="86.9" y="77.2" class="st2" width="5" height="5"/>
		<rect x="91.9" y="77.2" class="st2" width="5" height="5"/>
		<rect x="96.9" y="77.2" class="st2" width="5" height="5"/>
		<rect x="101.9" y="77.2" class="st2" width="5" height="5"/>
		<rect x="11.9" y="82.2" class="st2" width="5" height="5"/>
		<rect x="16.9" y="82.2" class="st2" width="5" height="5"/>
		<rect x="21.9" y="82.2" class="st2" width="5" height="5"/>
		<rect x="26.9" y="82.2" class="st2" width="5" height="5"/>
		<rect x="31.9" y="82.2" class="st2" width="5" height="5"/>
		<rect x="36.9" y="82.2" class="st2" width="5" height="5"/>
		<rect x="41.9" y="82.2" class="st2" width="5" height="5"/>
		<rect x="46.9" y="82.2" class="st2" width="5" height="5"/>
		<rect x="51.9" y="82.2" class="st2" width="5" height="5"/>
		<rect x="56.9" y="82.2" class="st2" width="5" height="5"/>
		<rect x="61.9" y="82.2" class="st2" width="5" height="5"/>
		<rect x="66.9" y="82.2" class="st2" width="5" height="5"/>
		<rect x="71.9" y="82.2" class="st2" width="5" height="5"/>
		<rect x="76.9" y="82.2" class="st2" width="5" height="5"/>
		<rect x="81.9" y="82.2" class="st2" width="5" height="5"/>
		<rect x="86.9" y="82.2" class="st2" width="5" height="5"/>
		<rect x="91.9" y="82.2" class="st2" width="5" height="5"/>
		<rect x="96.9" y="82.2" class="st2" width="5" height="5"/>
		<rect x="101.9" y="82.2" class="st2" width="5" height="5"/>
		<rect x="11.9" y="87.2" class="st2" width="5" height="5"/>
		<rect x="16.9" y="87.2" class="st2" width="5" height="5"/>
		<rect x="21.9" y="87.2" class="st2" width="5" height="5"/>
		<rect x="26.9" y="87.2" class="st2" width="5" height="5"/>
		<rect x="31.9" y="87.2" class="st2" width="5" height="5"/>
		<rect x="36.9" y="87.2" class="st2" width="5" height="5"/>
		<rect x="41.9" y="87.2" class="st2" width="5" height="5"/>
		<rect x="46.9" y="87.2" class="st2" width="5" height="5"/>
		<rect x="51.9" y="87.2" class="st2" width="5" height="5"/>
		<rect x="56.9" y="87.2" class="st2" width="5" height="5"/>
		<rect x="61.9" y="87.2" class="st2" width="5" height="5"/>
		<rect x="66.9" y="87.2" class="st2" width="5" height="5"/>
		<rect x="71.9" y="87.2" class="st2" width="5" height="5"/>
		<rect x="76.9" y="87.2" class="st2" width="5" height="5"/>
		<rect x="81.9" y="87.2" class="st2" width="5" height="5"/>
		<rect x="86.9" y="87.2" class="st2" width="5" height="5"/>
		<rect x="91.9" y="87.2" class="st2" width="5" height="5"/>
		<rect x="96.9" y="87.2" class="st2" width="5" height="5"/>
		<rect x="101.9" y="87.2" class="st2" width="5" height="5"/>
		<rect x="11.9" y="92.2" class="st2" width="5" height="5"/>
		<rect x="16.9" y="92.2" class="st2" width="5" height="5"/>
		<rect x="21.9" y="92.2" class="st2" width="5" height="5"/>
		<rect x="26.9" y="92.2" class="st2" width="5" height="5"/>
		<rect x="31.9" y="92.2" class="st2" width="5" height="5"/>
		<rect x="36.9" y="92.2" class="st2" width="5" height="5"/>
		<rect x="41.9" y="92.2" class="st2" width="5" height="5"/>
		<rect x="46.9" y="92.2" class="st2" width="5" height="5"/>
		<rect x="51.9" y="92.2" class="st2" width="5" height="5"/>
		<rect x="56.9" y="92.2" class="st2" width="5" height="5"/>
		<rect x="61.9" y="92.2" class="st2" width="5" height="5"/>
		<rect x="66.9" y="92.2" class="st2" width="5" height="5"/>
		<rect x="71.9" y="92.2" class="st2" width="5" height="5"/>
		<rect x="76.9" y="92.2" class="st2" width="5" height="5"/>
		<rect x="81.9" y="92.2" class="st2" width="5" height="5"/>
		<rect x="86.9" y="92.2" class="st2" width="5" height="5"/>
		<rect x="91.9" y="92.2" class="st2" width="5" height="5"/>
		<rect x="96.9" y="92.2" class="st2" width="5" height="5"/>
		<rect x="101.9" y="92.2" class="st2" width="5" height="5"/>
		<rect x="11.9" y="97.2" class="st2" width="5" height="5"/>
		<rect x="16.9" y="97.2" class="st2" width="5" height="5"/>
		<rect x="21.9" y="97.2" class="st2" width="5" height="5"/>
		<rect x="26.9" y="97.2" class="st2" width="5" height="5"/>
		<rect x="31.9" y="97.2" class="st2" width="5" height="5"/>
		<rect x="36.9" y="97.2" class="st2" width="5" height="5"/>
		<rect x="41.9" y="97.2" class="st2" width="5" height="5"/>
		<rect x="46.9" y="97.2" class="st2" width="5" height="5"/>
		<rect x="51.9" y="97.2" class="st2" width="5" height="5"/>
		<rect x="56.9" y="97.2" class="st2" width="5" height="5"/>
		<rect x="61.9" y="97.2" class="st2" width="5" height="5"/>
		<rect x="66.9" y="97.2" class="st2" width="5" height="5"/>
		<rect x="71.9" y="97.2" class="st2" width="5" height="5"/>
		<rect x="76.9" y="97.2" class="st2" width="5" height="5"/>
		<rect x="81.9" y="97.2" class="st2" width="5" height="5"/>
		<rect x="86.9" y="97.2" class="st2" width="5" height="5"/>
		<rect x="91.9" y="97.2" class="st2" width="5" height="5"/>
		<rect x="96.9" y="97.2" class="st2" width="5" height="5"/>
		<rect x="101.9" y="97.2" class="st2" width="5" height="5"/>
		<rect x="11.9" y="102.2" class="st2" width="5" height="5"/>
		<rect x="16.9" y="102.2" class="st2" width="5" height="5"/>
		<rect x="21.9" y="102.2" class="st2" width="5" height="5"/>
		<rect x="26.9" y="102.2" class="st2" width="5" height="5"/>
		<rect x="31.9" y="102.2" class="st2" width="5" height="5"/>
		<rect x="36.9" y="102.2" class="st2" width="5" height="5"/>
		<rect x="41.9" y="102.2" class="st2" width="5" height="5"/>
		<rect x="46.9" y="102.2" class="st2" width="5" height="5"/>
		<rect x="51.9" y="102.2" class="st2" width="5" height="5"/>
		<rect x="56.9" y="102.2" class="st2" width="5" height="5"/>
		<rect x="61.9" y="102.2" class="st2" width="5" height="5"/>
		<rect x="66.9" y="102.2" class="st2" width="5" height="5"/>
		<rect x="71.9" y="102.2" class="st2" width="5" height="5"/>
		<rect x="76.9" y="102.2" class="st2" width="5" height="5"/>
		<rect x="81.9" y="102.2" class="st2" width="5" height="5"/>
		<rect x="86.9" y="102.2" class="st2" width="5" height="5"/>
		<rect x="91.9" y="102.2" class="st2" width="5" height="5"/>
		<rect x="96.9" y="102.2" class="st2" width="5" height="5"/>
		<rect x="101.9" y="102.2" class="st2" width="5" height="5"/>
	</g>
</g>
<g id="Networking_2color-light_bk">
	<g id="Load_Balancer_1_">
		<path class="st3" d="M106.6,105.4H42.4L11.6,73.1V43.2l29.7-32.8h65.3V105.4z M43.5,102.9h60.6v-90H42.4L14.1,44.2v27.9
			L43.5,102.9z"/>
		<circle class="st3" cx="57" cy="30" r="7.5"/>
		<circle class="st3" cx="57" cy="59.5" r="7.5"/>
		<circle class="st3" cx="27.7" cy="59.5" r="7.5"/>
		<circle class="st3" cx="57" cy="88.8" r="7.5"/>
		
			<rect x="35.3" y="43.9" transform="matrix(0.7071 -0.7071 0.7071 0.7071 -19.2333 43.9067)" class="st4" width="16.2" height="2.5"/>
		
			<rect x="42.1" y="66.7" transform="matrix(0.7071 -0.7071 0.7071 0.7071 -40.2283 52.6047)" class="st4" width="2.5" height="16.2"/>
		<rect x="39.3" y="58.2" class="st4" width="8.9" height="2.5"/>
		<g>
			<polygon class="st4" points="86.7,36.7 98.3,30 86.7,23.2 86.7,27.5 68.3,27.5 68.3,32.5 86.7,32.5 			"/>
			<polygon class="st4" points="86.7,57 68.3,57 68.3,62 86.7,62 86.7,66.2 98.3,59.5 86.7,52.7 			"/>
			<polygon class="st4" points="86.7,86.3 68.3,86.3 68.3,91.3 86.7,91.3 86.7,95.5 98.3,88.8 86.7,82.1 			"/>
		</g>
	</g>
</g>
</svg>
