<?xml version="1.0" encoding="utf-8"?>
<!-- Generator: Adobe Illustrator 25.1.0, SVG Export Plug-In . SVG Version: 6.00 Build 0)  -->
<svg version="1.1" xmlns="http://www.w3.org/2000/svg" xmlns:xlink="http://www.w3.org/1999/xlink" x="0px" y="0px"
	 viewBox="0 0 120 120" style="enable-background:new 0 0 120 120;" xml:space="preserve">
<title>App Container 1</title>
<metadata><?xpacket begin="﻿" id="W5M0MpCehiHzreSzNTczkc9d"?>
<x:xmpmeta xmlns:x="adobe:ns:meta/" x:xmptk="Adobe XMP Core 6.0-c002 79.164488, 2020/07/10-22:06:53        ">
   <rdf:RDF xmlns:rdf="http://www.w3.org/1999/02/22-rdf-syntax-ns#">
      <rdf:Description rdf:about=""
            xmlns:xmp="http://ns.adobe.com/xap/1.0/"
            xmlns:xmpMM="http://ns.adobe.com/xap/1.0/mm/"
            xmlns:stEvt="http://ns.adobe.com/xap/1.0/sType/ResourceEvent#"
            xmlns:lr="http://ns.adobe.com/lightroom/1.0/"
            xmlns:dc="http://purl.org/dc/elements/1.1/">
         <xmp:MetadataDate>2021-02-15T15:30:20-06:00</xmp:MetadataDate>
         <xmpMM:InstanceID>xmp.iid:3b13a526-ef05-436f-a9cd-5bce0769da1e</xmpMM:InstanceID>
         <xmpMM:DocumentID>xmp.did:d4065db0-c377-4a2c-8e42-32775775da79</xmpMM:DocumentID>
         <xmpMM:OriginalDocumentID>xmp.did:d4065db0-c377-4a2c-8e42-32775775da79</xmpMM:OriginalDocumentID>
         <xmpMM:History>
            <rdf:Seq>
               <rdf:li>
                  <rdf:Description>
                     <stEvt:action>saved</stEvt:action>
                     <stEvt:instanceID>xmp.iid:d4065db0-c377-4a2c-8e42-32775775da79</stEvt:instanceID>
                     <stEvt:when>2021-02-15T14:50:29-06:00</stEvt:when>
                     <stEvt:softwareAgent>Adobe Bridge 2021 (Macintosh)</stEvt:softwareAgent>
                     <stEvt:changed>/metadata</stEvt:changed>
                  </rdf:Description>
               </rdf:li>
               <rdf:li>
                  <rdf:Description>
                     <stEvt:action>saved</stEvt:action>
                     <stEvt:instanceID>xmp.iid:3b13a526-ef05-436f-a9cd-5bce0769da1e</stEvt:instanceID>
                     <stEvt:when>2021-02-15T15:30:20-06:00</stEvt:when>
                     <stEvt:softwareAgent>Adobe Bridge 2021 (Macintosh)</stEvt:softwareAgent>
                     <stEvt:changed>/metadata</stEvt:changed>
                  </rdf:Description>
               </rdf:li>
            </rdf:Seq>
         </xmpMM:History>
         <lr:hierarchicalSubject>
            <rdf:Bag>
               <rdf:li>Category names|Applications</rdf:li>
               <rdf:li>General[JW1]|App</rdf:li>
               <rdf:li>Color[JW2]|2-Color</rdf:li>
               <rdf:li>Color[JW2]|Light Background</rdf:li>
            </rdf:Bag>
         </lr:hierarchicalSubject>
         <dc:subject>
            <rdf:Bag>
               <rdf:li>Applications</rdf:li>
               <rdf:li>Icon</rdf:li>
               <rdf:li>App</rdf:li>
               <rdf:li>2-Color</rdf:li>
               <rdf:li>Light Background</rdf:li>
            </rdf:Bag>
         </dc:subject>
         <dc:title>
            <rdf:Alt>
               <rdf:li xml:lang="x-default">App Container 1</rdf:li>
            </rdf:Alt>
         </dc:title>
      </rdf:Description>
   </rdf:RDF>
</x:xmpmeta>
                                                                                                    
                                                                                                    
                                                                                                    
                                                                                                    
                                                                                                    
                                                                                                    
                                                                                                    
                                                                                                    
                                                                                                    
                                                                                                    
                                                   
<?xpacket end="w"?></metadata>
<style type="text/css">
	.st0{display:none;}
	.st1{display:inline;}
	.st2{fill:#FFFFFF;stroke:#EC008C;stroke-width:0.1;stroke-miterlimit:10;}
	.st3{fill:#1D428A;}
	.st4{fill:#0091DA;}
</style>
<g id="_x39_5x95_Grids" class="st0">
	<g class="st1">
		<rect x="11.8" y="11.9" class="st2" width="5" height="5"/>
		<rect x="16.8" y="11.9" class="st2" width="5" height="5"/>
		<rect x="21.8" y="11.9" class="st2" width="5" height="5"/>
		<rect x="26.8" y="11.9" class="st2" width="5" height="5"/>
		<rect x="31.8" y="11.9" class="st2" width="5" height="5"/>
		<rect x="36.8" y="11.9" class="st2" width="5" height="5"/>
		<rect x="41.8" y="11.9" class="st2" width="5" height="5"/>
		<rect x="46.8" y="11.9" class="st2" width="5" height="5"/>
		<rect x="51.8" y="11.9" class="st2" width="5" height="5"/>
		<rect x="56.8" y="11.9" class="st2" width="5" height="5"/>
		<rect x="61.8" y="11.9" class="st2" width="5" height="5"/>
		<rect x="66.8" y="11.9" class="st2" width="5" height="5"/>
		<rect x="71.8" y="11.9" class="st2" width="5" height="5"/>
		<rect x="76.8" y="11.9" class="st2" width="5" height="5"/>
		<rect x="81.8" y="11.9" class="st2" width="5" height="5"/>
		<rect x="86.8" y="11.9" class="st2" width="5" height="5"/>
		<rect x="91.8" y="11.9" class="st2" width="5" height="5"/>
		<rect x="96.8" y="11.9" class="st2" width="5" height="5"/>
		<rect x="101.8" y="11.9" class="st2" width="5" height="5"/>
		<rect x="11.8" y="16.9" class="st2" width="5" height="5"/>
		<rect x="16.8" y="16.9" class="st2" width="5" height="5"/>
		<rect x="21.8" y="16.9" class="st2" width="5" height="5"/>
		<rect x="26.8" y="16.9" class="st2" width="5" height="5"/>
		<rect x="31.8" y="16.9" class="st2" width="5" height="5"/>
		<rect x="36.8" y="16.9" class="st2" width="5" height="5"/>
		<rect x="41.8" y="16.9" class="st2" width="5" height="5"/>
		<rect x="46.8" y="16.9" class="st2" width="5" height="5"/>
		<rect x="51.8" y="16.9" class="st2" width="5" height="5"/>
		<rect x="56.8" y="16.9" class="st2" width="5" height="5"/>
		<rect x="61.8" y="16.9" class="st2" width="5" height="5"/>
		<rect x="66.8" y="16.9" class="st2" width="5" height="5"/>
		<rect x="71.8" y="16.9" class="st2" width="5" height="5"/>
		<rect x="76.8" y="16.9" class="st2" width="5" height="5"/>
		<rect x="81.8" y="16.9" class="st2" width="5" height="5"/>
		<rect x="86.8" y="16.9" class="st2" width="5" height="5"/>
		<rect x="91.8" y="16.9" class="st2" width="5" height="5"/>
		<rect x="96.8" y="16.9" class="st2" width="5" height="5"/>
		<rect x="101.8" y="16.9" class="st2" width="5" height="5"/>
		<rect x="11.8" y="21.9" class="st2" width="5" height="5"/>
		<rect x="16.8" y="21.9" class="st2" width="5" height="5"/>
		<rect x="21.8" y="21.9" class="st2" width="5" height="5"/>
		<rect x="26.8" y="21.9" class="st2" width="5" height="5"/>
		<rect x="31.8" y="21.9" class="st2" width="5" height="5"/>
		<rect x="36.8" y="21.9" class="st2" width="5" height="5"/>
		<rect x="41.8" y="21.9" class="st2" width="5" height="5"/>
		<rect x="46.8" y="21.9" class="st2" width="5" height="5"/>
		<rect x="51.8" y="21.9" class="st2" width="5" height="5"/>
		<rect x="56.8" y="21.9" class="st2" width="5" height="5"/>
		<rect x="61.8" y="21.9" class="st2" width="5" height="5"/>
		<rect x="66.8" y="21.9" class="st2" width="5" height="5"/>
		<rect x="71.8" y="21.9" class="st2" width="5" height="5"/>
		<rect x="76.8" y="21.9" class="st2" width="5" height="5"/>
		<rect x="81.8" y="21.9" class="st2" width="5" height="5"/>
		<rect x="86.8" y="21.9" class="st2" width="5" height="5"/>
		<rect x="91.8" y="21.9" class="st2" width="5" height="5"/>
		<rect x="96.8" y="21.9" class="st2" width="5" height="5"/>
		<rect x="101.8" y="21.9" class="st2" width="5" height="5"/>
		<rect x="11.8" y="26.9" class="st2" width="5" height="5"/>
		<rect x="16.8" y="26.9" class="st2" width="5" height="5"/>
		<rect x="21.8" y="26.9" class="st2" width="5" height="5"/>
		<rect x="26.8" y="26.9" class="st2" width="5" height="5"/>
		<rect x="31.8" y="26.9" class="st2" width="5" height="5"/>
		<rect x="36.8" y="26.9" class="st2" width="5" height="5"/>
		<rect x="41.8" y="26.9" class="st2" width="5" height="5"/>
		<rect x="46.8" y="26.9" class="st2" width="5" height="5"/>
		<rect x="51.8" y="26.9" class="st2" width="5" height="5"/>
		<rect x="56.8" y="26.9" class="st2" width="5" height="5"/>
		<rect x="61.8" y="26.9" class="st2" width="5" height="5"/>
		<rect x="66.8" y="26.9" class="st2" width="5" height="5"/>
		<rect x="71.8" y="26.9" class="st2" width="5" height="5"/>
		<rect x="76.8" y="26.9" class="st2" width="5" height="5"/>
		<rect x="81.8" y="26.9" class="st2" width="5" height="5"/>
		<rect x="86.8" y="26.9" class="st2" width="5" height="5"/>
		<rect x="91.8" y="26.9" class="st2" width="5" height="5"/>
		<rect x="96.8" y="26.9" class="st2" width="5" height="5"/>
		<rect x="101.8" y="26.9" class="st2" width="5" height="5"/>
		<rect x="11.8" y="31.9" class="st2" width="5" height="5"/>
		<rect x="16.8" y="31.9" class="st2" width="5" height="5"/>
		<rect x="21.8" y="31.9" class="st2" width="5" height="5"/>
		<rect x="26.8" y="31.9" class="st2" width="5" height="5"/>
		<rect x="31.8" y="31.9" class="st2" width="5" height="5"/>
		<rect x="36.8" y="31.9" class="st2" width="5" height="5"/>
		<rect x="41.8" y="31.9" class="st2" width="5" height="5"/>
		<rect x="46.8" y="31.9" class="st2" width="5" height="5"/>
		<rect x="51.8" y="31.9" class="st2" width="5" height="5"/>
		<rect x="56.8" y="31.9" class="st2" width="5" height="5"/>
		<rect x="61.8" y="31.9" class="st2" width="5" height="5"/>
		<rect x="66.8" y="31.9" class="st2" width="5" height="5"/>
		<rect x="71.8" y="31.9" class="st2" width="5" height="5"/>
		<rect x="76.8" y="31.9" class="st2" width="5" height="5"/>
		<rect x="81.8" y="31.9" class="st2" width="5" height="5"/>
		<rect x="86.8" y="31.9" class="st2" width="5" height="5"/>
		<rect x="91.8" y="31.9" class="st2" width="5" height="5"/>
		<rect x="96.8" y="31.9" class="st2" width="5" height="5"/>
		<rect x="101.8" y="31.9" class="st2" width="5" height="5"/>
		<rect x="11.8" y="36.9" class="st2" width="5" height="5"/>
		<rect x="16.8" y="36.9" class="st2" width="5" height="5"/>
		<rect x="21.8" y="36.9" class="st2" width="5" height="5"/>
		<rect x="26.8" y="36.9" class="st2" width="5" height="5"/>
		<rect x="31.8" y="36.9" class="st2" width="5" height="5"/>
		<rect x="36.8" y="36.9" class="st2" width="5" height="5"/>
		<rect x="41.8" y="36.9" class="st2" width="5" height="5"/>
		<rect x="46.8" y="36.9" class="st2" width="5" height="5"/>
		<rect x="51.8" y="36.9" class="st2" width="5" height="5"/>
		<rect x="56.8" y="36.9" class="st2" width="5" height="5"/>
		<rect x="61.8" y="36.9" class="st2" width="5" height="5"/>
		<rect x="66.8" y="36.9" class="st2" width="5" height="5"/>
		<rect x="71.8" y="36.9" class="st2" width="5" height="5"/>
		<rect x="76.8" y="36.9" class="st2" width="5" height="5"/>
		<rect x="81.8" y="36.9" class="st2" width="5" height="5"/>
		<rect x="86.8" y="36.9" class="st2" width="5" height="5"/>
		<rect x="91.8" y="36.9" class="st2" width="5" height="5"/>
		<rect x="96.8" y="36.9" class="st2" width="5" height="5"/>
		<rect x="101.8" y="36.9" class="st2" width="5" height="5"/>
		<rect x="11.8" y="41.9" class="st2" width="5" height="5"/>
		<rect x="16.8" y="41.9" class="st2" width="5" height="5"/>
		<rect x="21.8" y="41.9" class="st2" width="5" height="5"/>
		<rect x="26.8" y="41.9" class="st2" width="5" height="5"/>
		<rect x="31.8" y="41.9" class="st2" width="5" height="5"/>
		<rect x="36.8" y="41.9" class="st2" width="5" height="5"/>
		<rect x="41.8" y="41.9" class="st2" width="5" height="5"/>
		<rect x="46.8" y="41.9" class="st2" width="5" height="5"/>
		<rect x="51.8" y="41.9" class="st2" width="5" height="5"/>
		<rect x="56.8" y="41.9" class="st2" width="5" height="5"/>
		<rect x="61.8" y="41.9" class="st2" width="5" height="5"/>
		<rect x="66.8" y="41.9" class="st2" width="5" height="5"/>
		<rect x="71.8" y="41.9" class="st2" width="5" height="5"/>
		<rect x="76.8" y="41.9" class="st2" width="5" height="5"/>
		<rect x="81.8" y="41.9" class="st2" width="5" height="5"/>
		<rect x="86.8" y="41.9" class="st2" width="5" height="5"/>
		<rect x="91.8" y="41.9" class="st2" width="5" height="5"/>
		<rect x="96.8" y="41.9" class="st2" width="5" height="5"/>
		<rect x="101.8" y="41.9" class="st2" width="5" height="5"/>
		<rect x="11.8" y="46.9" class="st2" width="5" height="5"/>
		<rect x="16.8" y="46.9" class="st2" width="5" height="5"/>
		<rect x="21.8" y="46.9" class="st2" width="5" height="5"/>
		<rect x="26.8" y="46.9" class="st2" width="5" height="5"/>
		<rect x="31.8" y="46.9" class="st2" width="5" height="5"/>
		<rect x="36.8" y="46.9" class="st2" width="5" height="5"/>
		<rect x="41.8" y="46.9" class="st2" width="5" height="5"/>
		<rect x="46.8" y="46.9" class="st2" width="5" height="5"/>
		<rect x="51.8" y="46.9" class="st2" width="5" height="5"/>
		<rect x="56.8" y="46.9" class="st2" width="5" height="5"/>
		<rect x="61.8" y="46.9" class="st2" width="5" height="5"/>
		<rect x="66.8" y="46.9" class="st2" width="5" height="5"/>
		<rect x="71.8" y="46.9" class="st2" width="5" height="5"/>
		<rect x="76.8" y="46.9" class="st2" width="5" height="5"/>
		<rect x="81.8" y="46.9" class="st2" width="5" height="5"/>
		<rect x="86.8" y="46.9" class="st2" width="5" height="5"/>
		<rect x="91.8" y="46.9" class="st2" width="5" height="5"/>
		<rect x="96.8" y="46.9" class="st2" width="5" height="5"/>
		<rect x="101.8" y="46.9" class="st2" width="5" height="5"/>
		<rect x="11.8" y="51.9" class="st2" width="5" height="5"/>
		<rect x="16.8" y="51.9" class="st2" width="5" height="5"/>
		<rect x="21.8" y="51.9" class="st2" width="5" height="5"/>
		<rect x="26.8" y="51.9" class="st2" width="5" height="5"/>
		<rect x="31.8" y="51.9" class="st2" width="5" height="5"/>
		<rect x="36.8" y="51.9" class="st2" width="5" height="5"/>
		<rect x="41.8" y="51.9" class="st2" width="5" height="5"/>
		<rect x="46.8" y="51.9" class="st2" width="5" height="5"/>
		<rect x="51.8" y="51.9" class="st2" width="5" height="5"/>
		<rect x="56.8" y="51.9" class="st2" width="5" height="5"/>
		<rect x="61.8" y="51.9" class="st2" width="5" height="5"/>
		<rect x="66.8" y="51.9" class="st2" width="5" height="5"/>
		<rect x="71.8" y="51.9" class="st2" width="5" height="5"/>
		<rect x="76.8" y="51.9" class="st2" width="5" height="5"/>
		<rect x="81.8" y="51.9" class="st2" width="5" height="5"/>
		<rect x="86.8" y="51.9" class="st2" width="5" height="5"/>
		<rect x="91.8" y="51.9" class="st2" width="5" height="5"/>
		<rect x="96.8" y="51.9" class="st2" width="5" height="5"/>
		<rect x="101.8" y="51.9" class="st2" width="5" height="5"/>
		<rect x="11.8" y="56.9" class="st2" width="5" height="5"/>
		<rect x="16.8" y="56.9" class="st2" width="5" height="5"/>
		<rect x="21.8" y="56.9" class="st2" width="5" height="5"/>
		<rect x="26.8" y="56.9" class="st2" width="5" height="5"/>
		<rect x="31.8" y="56.9" class="st2" width="5" height="5"/>
		<rect x="36.8" y="56.9" class="st2" width="5" height="5"/>
		<rect x="41.8" y="56.9" class="st2" width="5" height="5"/>
		<rect x="46.8" y="56.9" class="st2" width="5" height="5"/>
		<rect x="51.8" y="56.9" class="st2" width="5" height="5"/>
		<rect x="56.8" y="56.9" class="st2" width="5" height="5"/>
		<rect x="61.8" y="56.9" class="st2" width="5" height="5"/>
		<rect x="66.8" y="56.9" class="st2" width="5" height="5"/>
		<rect x="71.8" y="56.9" class="st2" width="5" height="5"/>
		<rect x="76.8" y="56.9" class="st2" width="5" height="5"/>
		<rect x="81.8" y="56.9" class="st2" width="5" height="5"/>
		<rect x="86.8" y="56.9" class="st2" width="5" height="5"/>
		<rect x="91.8" y="56.9" class="st2" width="5" height="5"/>
		<rect x="96.8" y="56.9" class="st2" width="5" height="5"/>
		<rect x="101.8" y="56.9" class="st2" width="5" height="5"/>
		<rect x="11.8" y="61.9" class="st2" width="5" height="5"/>
		<rect x="16.8" y="61.9" class="st2" width="5" height="5"/>
		<rect x="21.8" y="61.9" class="st2" width="5" height="5"/>
		<rect x="26.8" y="61.9" class="st2" width="5" height="5"/>
		<rect x="31.8" y="61.9" class="st2" width="5" height="5"/>
		<rect x="36.8" y="61.9" class="st2" width="5" height="5"/>
		<rect x="41.8" y="61.9" class="st2" width="5" height="5"/>
		<rect x="46.8" y="61.9" class="st2" width="5" height="5"/>
		<rect x="51.8" y="61.9" class="st2" width="5" height="5"/>
		<rect x="56.8" y="61.9" class="st2" width="5" height="5"/>
		<rect x="61.8" y="61.9" class="st2" width="5" height="5"/>
		<rect x="66.8" y="61.9" class="st2" width="5" height="5"/>
		<rect x="71.8" y="61.9" class="st2" width="5" height="5"/>
		<rect x="76.8" y="61.9" class="st2" width="5" height="5"/>
		<rect x="81.8" y="61.9" class="st2" width="5" height="5"/>
		<rect x="86.8" y="61.9" class="st2" width="5" height="5"/>
		<rect x="91.8" y="61.9" class="st2" width="5" height="5"/>
		<rect x="96.8" y="61.9" class="st2" width="5" height="5"/>
		<rect x="101.8" y="61.9" class="st2" width="5" height="5"/>
		<rect x="11.8" y="66.9" class="st2" width="5" height="5"/>
		<rect x="16.8" y="66.9" class="st2" width="5" height="5"/>
		<rect x="21.8" y="66.9" class="st2" width="5" height="5"/>
		<rect x="26.8" y="66.9" class="st2" width="5" height="5"/>
		<rect x="31.8" y="66.9" class="st2" width="5" height="5"/>
		<rect x="36.8" y="66.9" class="st2" width="5" height="5"/>
		<rect x="41.8" y="66.9" class="st2" width="5" height="5"/>
		<rect x="46.8" y="66.9" class="st2" width="5" height="5"/>
		<rect x="51.8" y="66.9" class="st2" width="5" height="5"/>
		<rect x="56.8" y="66.9" class="st2" width="5" height="5"/>
		<rect x="61.8" y="66.9" class="st2" width="5" height="5"/>
		<rect x="66.8" y="66.9" class="st2" width="5" height="5"/>
		<rect x="71.8" y="66.9" class="st2" width="5" height="5"/>
		<rect x="76.8" y="66.9" class="st2" width="5" height="5"/>
		<rect x="81.8" y="66.9" class="st2" width="5" height="5"/>
		<rect x="86.8" y="66.9" class="st2" width="5" height="5"/>
		<rect x="91.8" y="66.9" class="st2" width="5" height="5"/>
		<rect x="96.8" y="66.9" class="st2" width="5" height="5"/>
		<rect x="101.8" y="66.9" class="st2" width="5" height="5"/>
		<rect x="11.8" y="71.9" class="st2" width="5" height="5"/>
		<rect x="16.8" y="71.9" class="st2" width="5" height="5"/>
		<rect x="21.8" y="71.9" class="st2" width="5" height="5"/>
		<rect x="26.8" y="71.9" class="st2" width="5" height="5"/>
		<rect x="31.8" y="71.9" class="st2" width="5" height="5"/>
		<rect x="36.8" y="71.9" class="st2" width="5" height="5"/>
		<rect x="41.8" y="71.9" class="st2" width="5" height="5"/>
		<rect x="46.8" y="71.9" class="st2" width="5" height="5"/>
		<rect x="51.8" y="71.9" class="st2" width="5" height="5"/>
		<rect x="56.8" y="71.9" class="st2" width="5" height="5"/>
		<rect x="61.8" y="71.9" class="st2" width="5" height="5"/>
		<rect x="66.8" y="71.9" class="st2" width="5" height="5"/>
		<rect x="71.8" y="71.9" class="st2" width="5" height="5"/>
		<rect x="76.8" y="71.9" class="st2" width="5" height="5"/>
		<rect x="81.8" y="71.9" class="st2" width="5" height="5"/>
		<rect x="86.8" y="71.9" class="st2" width="5" height="5"/>
		<rect x="91.8" y="71.9" class="st2" width="5" height="5"/>
		<rect x="96.8" y="71.9" class="st2" width="5" height="5"/>
		<rect x="101.8" y="71.9" class="st2" width="5" height="5"/>
		<rect x="11.8" y="76.9" class="st2" width="5" height="5"/>
		<rect x="16.8" y="76.9" class="st2" width="5" height="5"/>
		<rect x="21.8" y="76.9" class="st2" width="5" height="5"/>
		<rect x="26.8" y="76.9" class="st2" width="5" height="5"/>
		<rect x="31.8" y="76.9" class="st2" width="5" height="5"/>
		<rect x="36.8" y="76.9" class="st2" width="5" height="5"/>
		<rect x="41.8" y="76.9" class="st2" width="5" height="5"/>
		<rect x="46.8" y="76.9" class="st2" width="5" height="5"/>
		<rect x="51.8" y="76.9" class="st2" width="5" height="5"/>
		<rect x="56.8" y="76.9" class="st2" width="5" height="5"/>
		<rect x="61.8" y="76.9" class="st2" width="5" height="5"/>
		<rect x="66.8" y="76.9" class="st2" width="5" height="5"/>
		<rect x="71.8" y="76.9" class="st2" width="5" height="5"/>
		<rect x="76.8" y="76.9" class="st2" width="5" height="5"/>
		<rect x="81.8" y="76.9" class="st2" width="5" height="5"/>
		<rect x="86.8" y="76.9" class="st2" width="5" height="5"/>
		<rect x="91.8" y="76.9" class="st2" width="5" height="5"/>
		<rect x="96.8" y="76.9" class="st2" width="5" height="5"/>
		<rect x="101.8" y="76.9" class="st2" width="5" height="5"/>
		<rect x="11.8" y="81.9" class="st2" width="5" height="5"/>
		<rect x="16.8" y="81.9" class="st2" width="5" height="5"/>
		<rect x="21.8" y="81.9" class="st2" width="5" height="5"/>
		<rect x="26.8" y="81.9" class="st2" width="5" height="5"/>
		<rect x="31.8" y="81.9" class="st2" width="5" height="5"/>
		<rect x="36.8" y="81.9" class="st2" width="5" height="5"/>
		<rect x="41.8" y="81.9" class="st2" width="5" height="5"/>
		<rect x="46.8" y="81.9" class="st2" width="5" height="5"/>
		<rect x="51.8" y="81.9" class="st2" width="5" height="5"/>
		<rect x="56.8" y="81.9" class="st2" width="5" height="5"/>
		<rect x="61.8" y="81.9" class="st2" width="5" height="5"/>
		<rect x="66.8" y="81.9" class="st2" width="5" height="5"/>
		<rect x="71.8" y="81.9" class="st2" width="5" height="5"/>
		<rect x="76.8" y="81.9" class="st2" width="5" height="5"/>
		<rect x="81.8" y="81.9" class="st2" width="5" height="5"/>
		<rect x="86.8" y="81.9" class="st2" width="5" height="5"/>
		<rect x="91.8" y="81.9" class="st2" width="5" height="5"/>
		<rect x="96.8" y="81.9" class="st2" width="5" height="5"/>
		<rect x="101.8" y="81.9" class="st2" width="5" height="5"/>
		<rect x="11.8" y="86.9" class="st2" width="5" height="5"/>
		<rect x="16.8" y="86.9" class="st2" width="5" height="5"/>
		<rect x="21.8" y="86.9" class="st2" width="5" height="5"/>
		<rect x="26.8" y="86.9" class="st2" width="5" height="5"/>
		<rect x="31.8" y="86.9" class="st2" width="5" height="5"/>
		<rect x="36.8" y="86.9" class="st2" width="5" height="5"/>
		<rect x="41.8" y="86.9" class="st2" width="5" height="5"/>
		<rect x="46.8" y="86.9" class="st2" width="5" height="5"/>
		<rect x="51.8" y="86.9" class="st2" width="5" height="5"/>
		<rect x="56.8" y="86.9" class="st2" width="5" height="5"/>
		<rect x="61.8" y="86.9" class="st2" width="5" height="5"/>
		<rect x="66.8" y="86.9" class="st2" width="5" height="5"/>
		<rect x="71.8" y="86.9" class="st2" width="5" height="5"/>
		<rect x="76.8" y="86.9" class="st2" width="5" height="5"/>
		<rect x="81.8" y="86.9" class="st2" width="5" height="5"/>
		<rect x="86.8" y="86.9" class="st2" width="5" height="5"/>
		<rect x="91.8" y="86.9" class="st2" width="5" height="5"/>
		<rect x="96.8" y="86.9" class="st2" width="5" height="5"/>
		<rect x="101.8" y="86.9" class="st2" width="5" height="5"/>
		<rect x="11.8" y="91.9" class="st2" width="5" height="5"/>
		<rect x="16.8" y="91.9" class="st2" width="5" height="5"/>
		<rect x="21.8" y="91.9" class="st2" width="5" height="5"/>
		<rect x="26.8" y="91.9" class="st2" width="5" height="5"/>
		<rect x="31.8" y="91.9" class="st2" width="5" height="5"/>
		<rect x="36.8" y="91.9" class="st2" width="5" height="5"/>
		<rect x="41.8" y="91.9" class="st2" width="5" height="5"/>
		<rect x="46.8" y="91.9" class="st2" width="5" height="5"/>
		<rect x="51.8" y="91.9" class="st2" width="5" height="5"/>
		<rect x="56.8" y="91.9" class="st2" width="5" height="5"/>
		<rect x="61.8" y="91.9" class="st2" width="5" height="5"/>
		<rect x="66.8" y="91.9" class="st2" width="5" height="5"/>
		<rect x="71.8" y="91.9" class="st2" width="5" height="5"/>
		<rect x="76.8" y="91.9" class="st2" width="5" height="5"/>
		<rect x="81.8" y="91.9" class="st2" width="5" height="5"/>
		<rect x="86.8" y="91.9" class="st2" width="5" height="5"/>
		<rect x="91.8" y="91.9" class="st2" width="5" height="5"/>
		<rect x="96.8" y="91.9" class="st2" width="5" height="5"/>
		<rect x="101.8" y="91.9" class="st2" width="5" height="5"/>
		<rect x="11.8" y="96.9" class="st2" width="5" height="5"/>
		<rect x="16.8" y="96.9" class="st2" width="5" height="5"/>
		<rect x="21.8" y="96.9" class="st2" width="5" height="5"/>
		<rect x="26.8" y="96.9" class="st2" width="5" height="5"/>
		<rect x="31.8" y="96.9" class="st2" width="5" height="5"/>
		<rect x="36.8" y="96.9" class="st2" width="5" height="5"/>
		<rect x="41.8" y="96.9" class="st2" width="5" height="5"/>
		<rect x="46.8" y="96.9" class="st2" width="5" height="5"/>
		<rect x="51.8" y="96.9" class="st2" width="5" height="5"/>
		<rect x="56.8" y="96.9" class="st2" width="5" height="5"/>
		<rect x="61.8" y="96.9" class="st2" width="5" height="5"/>
		<rect x="66.8" y="96.9" class="st2" width="5" height="5"/>
		<rect x="71.8" y="96.9" class="st2" width="5" height="5"/>
		<rect x="76.8" y="96.9" class="st2" width="5" height="5"/>
		<rect x="81.8" y="96.9" class="st2" width="5" height="5"/>
		<rect x="86.8" y="96.9" class="st2" width="5" height="5"/>
		<rect x="91.8" y="96.9" class="st2" width="5" height="5"/>
		<rect x="96.8" y="96.9" class="st2" width="5" height="5"/>
		<rect x="101.8" y="96.9" class="st2" width="5" height="5"/>
		<rect x="11.8" y="101.9" class="st2" width="5" height="5"/>
		<rect x="16.8" y="101.9" class="st2" width="5" height="5"/>
		<rect x="21.8" y="101.9" class="st2" width="5" height="5"/>
		<rect x="26.8" y="101.9" class="st2" width="5" height="5"/>
		<rect x="31.8" y="101.9" class="st2" width="5" height="5"/>
		<rect x="36.8" y="101.9" class="st2" width="5" height="5"/>
		<rect x="41.8" y="101.9" class="st2" width="5" height="5"/>
		<rect x="46.8" y="101.9" class="st2" width="5" height="5"/>
		<rect x="51.8" y="101.9" class="st2" width="5" height="5"/>
		<rect x="56.8" y="101.9" class="st2" width="5" height="5"/>
		<rect x="61.8" y="101.9" class="st2" width="5" height="5"/>
		<rect x="66.8" y="101.9" class="st2" width="5" height="5"/>
		<rect x="71.8" y="101.9" class="st2" width="5" height="5"/>
		<rect x="76.8" y="101.9" class="st2" width="5" height="5"/>
		<rect x="81.8" y="101.9" class="st2" width="5" height="5"/>
		<rect x="86.8" y="101.9" class="st2" width="5" height="5"/>
		<rect x="91.8" y="101.9" class="st2" width="5" height="5"/>
		<rect x="96.8" y="101.9" class="st2" width="5" height="5"/>
		<rect x="101.8" y="101.9" class="st2" width="5" height="5"/>
	</g>
</g>
<g id="Applications_2color-light_bk">
	<g id="App_Container_1_1_">
		<g>
			<path class="st3" d="M98,107.2H88v-2.5h10V107.2z M83,107.2H73v-2.5h10V107.2z M68,107.2H58v-2.5h10V107.2z M53,107.2H43v-2.5h10
				V107.2z M38,107.2H28v-2.5h10V107.2z M23,107.2H12.5v-2h1.2v-0.5H23V107.2z M107.5,106.4H105v-2.2h2.5V106.4z M15,100.1h-2.5v-10
				H15V100.1z M107.5,99.2H105v-10h2.5V99.2z M15,85.1h-2.5v-10H15V85.1z M107.5,84.2H105v-10h2.5V84.2z M15,70.1h-2.5v-10H15V70.1z
				 M107.5,69.2H105v-10h2.5V69.2z M15,55.1h-2.5v-10H15V55.1z M107.5,54.2H105v-10h2.5V54.2z M15,40.1h-2.5v-10H15V40.1z
				 M107.5,39.2H105v-10h2.5V39.2z M15,25.1h-2.5v-10H15V25.1z M107.5,24.2H105v-10h2.5V24.2z M102,14.7H92v-2.5h10V14.7z M87,14.7
				H77v-2.5h10V14.7z M72,14.7H62v-2.5h10V14.7z M57,14.7H47v-2.5h10V14.7z M42,14.7H32v-2.5h10V14.7z M27,14.7H17v-2.5h10V14.7z"/>
		</g>
		<path class="st4" d="M78.5,39.8c0.8,0,1.5,0.7,1.5,1.5v37c0,0.8-0.7,1.5-1.5,1.5h-37c-0.8,0-1.5-0.7-1.5-1.5v-37
			c0-0.8,0.7-1.5,1.5-1.5H78.5 M78.5,37.3h-37c-2.2,0-4,1.8-4,4v37c0,2.2,1.8,4,4,4h37c2.2,0,4-1.8,4-4v-37
			C82.5,39.1,80.7,37.3,78.5,37.3L78.5,37.3z"/>
		<g>
			<path class="st4" d="M52.6,62.5h-5.7l-1,2.3h-1.3L49,54.5h1.3l4.5,10.3h-1.3L52.6,62.5z M52.1,61.4L49.7,56l-2.4,5.4H52.1z"/>
			<path class="st4" d="M57,54.5h4.2c2.1,0,3.8,1.4,3.8,3.3c0,1.9-1.7,3.3-3.8,3.3h-3v3.7H57V54.5z M61,60c1.7,0,2.8-0.8,2.8-2.2
				s-1.1-2.2-2.8-2.2h-2.8V60H61z"/>
			<path class="st4" d="M67.1,54.5h4.2c2.1,0,3.8,1.4,3.8,3.3c0,1.9-1.7,3.3-3.8,3.3h-3v3.7h-1.2V54.5z M71.1,60
				c1.7,0,2.8-0.8,2.8-2.2s-1.1-2.2-2.8-2.2h-2.8V60H71.1z"/>
		</g>
	</g>
</g>
</svg>
