<?xml version="1.0" encoding="utf-8"?>
<!-- Generator: Adobe Illustrator 25.1.0, SVG Export Plug-In . SVG Version: 6.00 Build 0)  -->
<svg version="1.1" xmlns="http://www.w3.org/2000/svg" xmlns:xlink="http://www.w3.org/1999/xlink" x="0px" y="0px"
	 viewBox="0 0 120 120" style="enable-background:new 0 0 120 120;" xml:space="preserve">
<title>Firewall 2</title>
<metadata><?xpacket begin="﻿" id="W5M0MpCehiHzreSzNTczkc9d"?>
<x:xmpmeta xmlns:x="adobe:ns:meta/" x:xmptk="Adobe XMP Core 6.0-c002 79.164488, 2020/07/10-22:06:53        ">
   <rdf:RDF xmlns:rdf="http://www.w3.org/1999/02/22-rdf-syntax-ns#">
      <rdf:Description rdf:about=""
            xmlns:xmp="http://ns.adobe.com/xap/1.0/"
            xmlns:xmpMM="http://ns.adobe.com/xap/1.0/mm/"
            xmlns:stEvt="http://ns.adobe.com/xap/1.0/sType/ResourceEvent#"
            xmlns:lr="http://ns.adobe.com/lightroom/1.0/"
            xmlns:dc="http://purl.org/dc/elements/1.1/">
         <xmp:MetadataDate>2021-02-15T19:10:07-06:00</xmp:MetadataDate>
         <xmpMM:InstanceID>xmp.iid:db010613-fa2e-48c7-bf77-9479e082d059</xmpMM:InstanceID>
         <xmpMM:DocumentID>xmp.did:8bc6fbbf-206d-4786-8916-318b627fba89</xmpMM:DocumentID>
         <xmpMM:OriginalDocumentID>xmp.did:8bc6fbbf-206d-4786-8916-318b627fba89</xmpMM:OriginalDocumentID>
         <xmpMM:History>
            <rdf:Seq>
               <rdf:li>
                  <rdf:Description>
                     <stEvt:action>saved</stEvt:action>
                     <stEvt:instanceID>xmp.iid:8bc6fbbf-206d-4786-8916-318b627fba89</stEvt:instanceID>
                     <stEvt:when>2021-02-15T14:55:01-06:00</stEvt:when>
                     <stEvt:softwareAgent>Adobe Bridge 2021 (Macintosh)</stEvt:softwareAgent>
                     <stEvt:changed>/metadata</stEvt:changed>
                  </rdf:Description>
               </rdf:li>
               <rdf:li>
                  <rdf:Description>
                     <stEvt:action>saved</stEvt:action>
                     <stEvt:instanceID>xmp.iid:db010613-fa2e-48c7-bf77-9479e082d059</stEvt:instanceID>
                     <stEvt:when>2021-02-15T19:10:07-06:00</stEvt:when>
                     <stEvt:softwareAgent>Adobe Bridge 2021 (Macintosh)</stEvt:softwareAgent>
                     <stEvt:changed>/metadata</stEvt:changed>
                  </rdf:Description>
               </rdf:li>
            </rdf:Seq>
         </xmpMM:History>
         <lr:hierarchicalSubject>
            <rdf:Bag>
               <rdf:li>Category names|Networking Security</rdf:li>
               <rdf:li>Color[JW2]|2-Color</rdf:li>
               <rdf:li>Color[JW2]|Light Background</rdf:li>
               <rdf:li>General[JW1]|Brick</rdf:li>
               <rdf:li>General[JW1]|Fire</rdf:li>
            </rdf:Bag>
         </lr:hierarchicalSubject>
         <dc:subject>
            <rdf:Bag>
               <rdf:li>Networking Security</rdf:li>
               <rdf:li>Icon</rdf:li>
               <rdf:li>2-Color</rdf:li>
               <rdf:li>Light Background</rdf:li>
               <rdf:li>Brick</rdf:li>
               <rdf:li>Fire</rdf:li>
            </rdf:Bag>
         </dc:subject>
         <dc:title>
            <rdf:Alt>
               <rdf:li xml:lang="x-default">Firewall 2</rdf:li>
            </rdf:Alt>
         </dc:title>
      </rdf:Description>
   </rdf:RDF>
</x:xmpmeta>
                                                                                                    
                                                                                                    
                                                                                                    
                                                                                                    
                                                                                                    
                                                                                                    
                                                                                                    
                                                                                                    
                                                                                                    
                                                                  
<?xpacket end="w"?></metadata>
<style type="text/css">
	.st0{display:none;}
	.st1{display:inline;}
	.st2{fill:#FFFFFF;stroke:#EC008C;stroke-width:0.1;stroke-miterlimit:10;}
	.st3{fill:#1D428A;}
	.st4{fill:#0091DA;}
</style>
<g id="_x39_5x95_Grids" class="st0">
	<g class="st1">
		<rect x="12.1" y="12.2" class="st2" width="5" height="5"/>
		<rect x="17.1" y="12.2" class="st2" width="5" height="5"/>
		<rect x="22.1" y="12.2" class="st2" width="5" height="5"/>
		<rect x="27.1" y="12.2" class="st2" width="5" height="5"/>
		<rect x="32.1" y="12.2" class="st2" width="5" height="5"/>
		<rect x="37.1" y="12.2" class="st2" width="5" height="5"/>
		<rect x="42.1" y="12.2" class="st2" width="5" height="5"/>
		<rect x="47.1" y="12.2" class="st2" width="5" height="5"/>
		<rect x="52.1" y="12.2" class="st2" width="5" height="5"/>
		<rect x="57.1" y="12.2" class="st2" width="5" height="5"/>
		<rect x="62.1" y="12.2" class="st2" width="5" height="5"/>
		<rect x="67.1" y="12.2" class="st2" width="5" height="5"/>
		<rect x="72.1" y="12.2" class="st2" width="5" height="5"/>
		<rect x="77.1" y="12.2" class="st2" width="5" height="5"/>
		<rect x="82.1" y="12.2" class="st2" width="5" height="5"/>
		<rect x="87.1" y="12.2" class="st2" width="5" height="5"/>
		<rect x="92.1" y="12.2" class="st2" width="5" height="5"/>
		<rect x="97.1" y="12.2" class="st2" width="5" height="5"/>
		<rect x="102.1" y="12.2" class="st2" width="5" height="5"/>
		<rect x="12.1" y="17.2" class="st2" width="5" height="5"/>
		<rect x="17.1" y="17.2" class="st2" width="5" height="5"/>
		<rect x="22.1" y="17.2" class="st2" width="5" height="5"/>
		<rect x="27.1" y="17.2" class="st2" width="5" height="5"/>
		<rect x="32.1" y="17.2" class="st2" width="5" height="5"/>
		<rect x="37.1" y="17.2" class="st2" width="5" height="5"/>
		<rect x="42.1" y="17.2" class="st2" width="5" height="5"/>
		<rect x="47.1" y="17.2" class="st2" width="5" height="5"/>
		<rect x="52.1" y="17.2" class="st2" width="5" height="5"/>
		<rect x="57.1" y="17.2" class="st2" width="5" height="5"/>
		<rect x="62.1" y="17.2" class="st2" width="5" height="5"/>
		<rect x="67.1" y="17.2" class="st2" width="5" height="5"/>
		<rect x="72.1" y="17.2" class="st2" width="5" height="5"/>
		<rect x="77.1" y="17.2" class="st2" width="5" height="5"/>
		<rect x="82.1" y="17.2" class="st2" width="5" height="5"/>
		<rect x="87.1" y="17.2" class="st2" width="5" height="5"/>
		<rect x="92.1" y="17.2" class="st2" width="5" height="5"/>
		<rect x="97.1" y="17.2" class="st2" width="5" height="5"/>
		<rect x="102.1" y="17.2" class="st2" width="5" height="5"/>
		<rect x="12.1" y="22.2" class="st2" width="5" height="5"/>
		<rect x="17.1" y="22.2" class="st2" width="5" height="5"/>
		<rect x="22.1" y="22.2" class="st2" width="5" height="5"/>
		<rect x="27.1" y="22.2" class="st2" width="5" height="5"/>
		<rect x="32.1" y="22.2" class="st2" width="5" height="5"/>
		<rect x="37.1" y="22.2" class="st2" width="5" height="5"/>
		<rect x="42.1" y="22.2" class="st2" width="5" height="5"/>
		<rect x="47.1" y="22.2" class="st2" width="5" height="5"/>
		<rect x="52.1" y="22.2" class="st2" width="5" height="5"/>
		<rect x="57.1" y="22.2" class="st2" width="5" height="5"/>
		<rect x="62.1" y="22.2" class="st2" width="5" height="5"/>
		<rect x="67.1" y="22.2" class="st2" width="5" height="5"/>
		<rect x="72.1" y="22.2" class="st2" width="5" height="5"/>
		<rect x="77.1" y="22.2" class="st2" width="5" height="5"/>
		<rect x="82.1" y="22.2" class="st2" width="5" height="5"/>
		<rect x="87.1" y="22.2" class="st2" width="5" height="5"/>
		<rect x="92.1" y="22.2" class="st2" width="5" height="5"/>
		<rect x="97.1" y="22.2" class="st2" width="5" height="5"/>
		<rect x="102.1" y="22.2" class="st2" width="5" height="5"/>
		<rect x="12.1" y="27.2" class="st2" width="5" height="5"/>
		<rect x="17.1" y="27.2" class="st2" width="5" height="5"/>
		<rect x="22.1" y="27.2" class="st2" width="5" height="5"/>
		<rect x="27.1" y="27.2" class="st2" width="5" height="5"/>
		<rect x="32.1" y="27.2" class="st2" width="5" height="5"/>
		<rect x="37.1" y="27.2" class="st2" width="5" height="5"/>
		<rect x="42.1" y="27.2" class="st2" width="5" height="5"/>
		<rect x="47.1" y="27.2" class="st2" width="5" height="5"/>
		<rect x="52.1" y="27.2" class="st2" width="5" height="5"/>
		<rect x="57.1" y="27.2" class="st2" width="5" height="5"/>
		<rect x="62.1" y="27.2" class="st2" width="5" height="5"/>
		<rect x="67.1" y="27.2" class="st2" width="5" height="5"/>
		<rect x="72.1" y="27.2" class="st2" width="5" height="5"/>
		<rect x="77.1" y="27.2" class="st2" width="5" height="5"/>
		<rect x="82.1" y="27.2" class="st2" width="5" height="5"/>
		<rect x="87.1" y="27.2" class="st2" width="5" height="5"/>
		<rect x="92.1" y="27.2" class="st2" width="5" height="5"/>
		<rect x="97.1" y="27.2" class="st2" width="5" height="5"/>
		<rect x="102.1" y="27.2" class="st2" width="5" height="5"/>
		<rect x="12.1" y="32.2" class="st2" width="5" height="5"/>
		<rect x="17.1" y="32.2" class="st2" width="5" height="5"/>
		<rect x="22.1" y="32.2" class="st2" width="5" height="5"/>
		<rect x="27.1" y="32.2" class="st2" width="5" height="5"/>
		<rect x="32.1" y="32.2" class="st2" width="5" height="5"/>
		<rect x="37.1" y="32.2" class="st2" width="5" height="5"/>
		<rect x="42.1" y="32.2" class="st2" width="5" height="5"/>
		<rect x="47.1" y="32.2" class="st2" width="5" height="5"/>
		<rect x="52.1" y="32.2" class="st2" width="5" height="5"/>
		<rect x="57.1" y="32.2" class="st2" width="5" height="5"/>
		<rect x="62.1" y="32.2" class="st2" width="5" height="5"/>
		<rect x="67.1" y="32.2" class="st2" width="5" height="5"/>
		<rect x="72.1" y="32.2" class="st2" width="5" height="5"/>
		<rect x="77.1" y="32.2" class="st2" width="5" height="5"/>
		<rect x="82.1" y="32.2" class="st2" width="5" height="5"/>
		<rect x="87.1" y="32.2" class="st2" width="5" height="5"/>
		<rect x="92.1" y="32.2" class="st2" width="5" height="5"/>
		<rect x="97.1" y="32.2" class="st2" width="5" height="5"/>
		<rect x="102.1" y="32.2" class="st2" width="5" height="5"/>
		<rect x="12.1" y="37.2" class="st2" width="5" height="5"/>
		<rect x="17.1" y="37.2" class="st2" width="5" height="5"/>
		<rect x="22.1" y="37.2" class="st2" width="5" height="5"/>
		<rect x="27.1" y="37.2" class="st2" width="5" height="5"/>
		<rect x="32.1" y="37.2" class="st2" width="5" height="5"/>
		<rect x="37.1" y="37.2" class="st2" width="5" height="5"/>
		<rect x="42.1" y="37.2" class="st2" width="5" height="5"/>
		<rect x="47.1" y="37.2" class="st2" width="5" height="5"/>
		<rect x="52.1" y="37.2" class="st2" width="5" height="5"/>
		<rect x="57.1" y="37.2" class="st2" width="5" height="5"/>
		<rect x="62.1" y="37.2" class="st2" width="5" height="5"/>
		<rect x="67.1" y="37.2" class="st2" width="5" height="5"/>
		<rect x="72.1" y="37.2" class="st2" width="5" height="5"/>
		<rect x="77.1" y="37.2" class="st2" width="5" height="5"/>
		<rect x="82.1" y="37.2" class="st2" width="5" height="5"/>
		<rect x="87.1" y="37.2" class="st2" width="5" height="5"/>
		<rect x="92.1" y="37.2" class="st2" width="5" height="5"/>
		<rect x="97.1" y="37.2" class="st2" width="5" height="5"/>
		<rect x="102.1" y="37.2" class="st2" width="5" height="5"/>
		<rect x="12.1" y="42.2" class="st2" width="5" height="5"/>
		<rect x="17.1" y="42.2" class="st2" width="5" height="5"/>
		<rect x="22.1" y="42.2" class="st2" width="5" height="5"/>
		<rect x="27.1" y="42.2" class="st2" width="5" height="5"/>
		<rect x="32.1" y="42.2" class="st2" width="5" height="5"/>
		<rect x="37.1" y="42.2" class="st2" width="5" height="5"/>
		<rect x="42.1" y="42.2" class="st2" width="5" height="5"/>
		<rect x="47.1" y="42.2" class="st2" width="5" height="5"/>
		<rect x="52.1" y="42.2" class="st2" width="5" height="5"/>
		<rect x="57.1" y="42.2" class="st2" width="5" height="5"/>
		<rect x="62.1" y="42.2" class="st2" width="5" height="5"/>
		<rect x="67.1" y="42.2" class="st2" width="5" height="5"/>
		<rect x="72.1" y="42.2" class="st2" width="5" height="5"/>
		<rect x="77.1" y="42.2" class="st2" width="5" height="5"/>
		<rect x="82.1" y="42.2" class="st2" width="5" height="5"/>
		<rect x="87.1" y="42.2" class="st2" width="5" height="5"/>
		<rect x="92.1" y="42.2" class="st2" width="5" height="5"/>
		<rect x="97.1" y="42.2" class="st2" width="5" height="5"/>
		<rect x="102.1" y="42.2" class="st2" width="5" height="5"/>
		<rect x="12.1" y="47.2" class="st2" width="5" height="5"/>
		<rect x="17.1" y="47.2" class="st2" width="5" height="5"/>
		<rect x="22.1" y="47.2" class="st2" width="5" height="5"/>
		<rect x="27.1" y="47.2" class="st2" width="5" height="5"/>
		<rect x="32.1" y="47.2" class="st2" width="5" height="5"/>
		<rect x="37.1" y="47.2" class="st2" width="5" height="5"/>
		<rect x="42.1" y="47.2" class="st2" width="5" height="5"/>
		<rect x="47.1" y="47.2" class="st2" width="5" height="5"/>
		<rect x="52.1" y="47.2" class="st2" width="5" height="5"/>
		<rect x="57.1" y="47.2" class="st2" width="5" height="5"/>
		<rect x="62.1" y="47.2" class="st2" width="5" height="5"/>
		<rect x="67.1" y="47.2" class="st2" width="5" height="5"/>
		<rect x="72.1" y="47.2" class="st2" width="5" height="5"/>
		<rect x="77.1" y="47.2" class="st2" width="5" height="5"/>
		<rect x="82.1" y="47.2" class="st2" width="5" height="5"/>
		<rect x="87.1" y="47.2" class="st2" width="5" height="5"/>
		<rect x="92.1" y="47.2" class="st2" width="5" height="5"/>
		<rect x="97.1" y="47.2" class="st2" width="5" height="5"/>
		<rect x="102.1" y="47.2" class="st2" width="5" height="5"/>
		<rect x="12.1" y="52.2" class="st2" width="5" height="5"/>
		<rect x="17.1" y="52.2" class="st2" width="5" height="5"/>
		<rect x="22.1" y="52.2" class="st2" width="5" height="5"/>
		<rect x="27.1" y="52.2" class="st2" width="5" height="5"/>
		<rect x="32.1" y="52.2" class="st2" width="5" height="5"/>
		<rect x="37.1" y="52.2" class="st2" width="5" height="5"/>
		<rect x="42.1" y="52.2" class="st2" width="5" height="5"/>
		<rect x="47.1" y="52.2" class="st2" width="5" height="5"/>
		<rect x="52.1" y="52.2" class="st2" width="5" height="5"/>
		<rect x="57.1" y="52.2" class="st2" width="5" height="5"/>
		<rect x="62.1" y="52.2" class="st2" width="5" height="5"/>
		<rect x="67.1" y="52.2" class="st2" width="5" height="5"/>
		<rect x="72.1" y="52.2" class="st2" width="5" height="5"/>
		<rect x="77.1" y="52.2" class="st2" width="5" height="5"/>
		<rect x="82.1" y="52.2" class="st2" width="5" height="5"/>
		<rect x="87.1" y="52.2" class="st2" width="5" height="5"/>
		<rect x="92.1" y="52.2" class="st2" width="5" height="5"/>
		<rect x="97.1" y="52.2" class="st2" width="5" height="5"/>
		<rect x="102.1" y="52.2" class="st2" width="5" height="5"/>
		<rect x="12.1" y="57.2" class="st2" width="5" height="5"/>
		<rect x="17.1" y="57.2" class="st2" width="5" height="5"/>
		<rect x="22.1" y="57.2" class="st2" width="5" height="5"/>
		<rect x="27.1" y="57.2" class="st2" width="5" height="5"/>
		<rect x="32.1" y="57.2" class="st2" width="5" height="5"/>
		<rect x="37.1" y="57.2" class="st2" width="5" height="5"/>
		<rect x="42.1" y="57.2" class="st2" width="5" height="5"/>
		<rect x="47.1" y="57.2" class="st2" width="5" height="5"/>
		<rect x="52.1" y="57.2" class="st2" width="5" height="5"/>
		<rect x="57.1" y="57.2" class="st2" width="5" height="5"/>
		<rect x="62.1" y="57.2" class="st2" width="5" height="5"/>
		<rect x="67.1" y="57.2" class="st2" width="5" height="5"/>
		<rect x="72.1" y="57.2" class="st2" width="5" height="5"/>
		<rect x="77.1" y="57.2" class="st2" width="5" height="5"/>
		<rect x="82.1" y="57.2" class="st2" width="5" height="5"/>
		<rect x="87.1" y="57.2" class="st2" width="5" height="5"/>
		<rect x="92.1" y="57.2" class="st2" width="5" height="5"/>
		<rect x="97.1" y="57.2" class="st2" width="5" height="5"/>
		<rect x="102.1" y="57.2" class="st2" width="5" height="5"/>
		<rect x="12.1" y="62.2" class="st2" width="5" height="5"/>
		<rect x="17.1" y="62.2" class="st2" width="5" height="5"/>
		<rect x="22.1" y="62.2" class="st2" width="5" height="5"/>
		<rect x="27.1" y="62.2" class="st2" width="5" height="5"/>
		<rect x="32.1" y="62.2" class="st2" width="5" height="5"/>
		<rect x="37.1" y="62.2" class="st2" width="5" height="5"/>
		<rect x="42.1" y="62.2" class="st2" width="5" height="5"/>
		<rect x="47.1" y="62.2" class="st2" width="5" height="5"/>
		<rect x="52.1" y="62.2" class="st2" width="5" height="5"/>
		<rect x="57.1" y="62.2" class="st2" width="5" height="5"/>
		<rect x="62.1" y="62.2" class="st2" width="5" height="5"/>
		<rect x="67.1" y="62.2" class="st2" width="5" height="5"/>
		<rect x="72.1" y="62.2" class="st2" width="5" height="5"/>
		<rect x="77.1" y="62.2" class="st2" width="5" height="5"/>
		<rect x="82.1" y="62.2" class="st2" width="5" height="5"/>
		<rect x="87.1" y="62.2" class="st2" width="5" height="5"/>
		<rect x="92.1" y="62.2" class="st2" width="5" height="5"/>
		<rect x="97.1" y="62.2" class="st2" width="5" height="5"/>
		<rect x="102.1" y="62.2" class="st2" width="5" height="5"/>
		<rect x="12.1" y="67.2" class="st2" width="5" height="5"/>
		<rect x="17.1" y="67.2" class="st2" width="5" height="5"/>
		<rect x="22.1" y="67.2" class="st2" width="5" height="5"/>
		<rect x="27.1" y="67.2" class="st2" width="5" height="5"/>
		<rect x="32.1" y="67.2" class="st2" width="5" height="5"/>
		<rect x="37.1" y="67.2" class="st2" width="5" height="5"/>
		<rect x="42.1" y="67.2" class="st2" width="5" height="5"/>
		<rect x="47.1" y="67.2" class="st2" width="5" height="5"/>
		<rect x="52.1" y="67.2" class="st2" width="5" height="5"/>
		<rect x="57.1" y="67.2" class="st2" width="5" height="5"/>
		<rect x="62.1" y="67.2" class="st2" width="5" height="5"/>
		<rect x="67.1" y="67.2" class="st2" width="5" height="5"/>
		<rect x="72.1" y="67.2" class="st2" width="5" height="5"/>
		<rect x="77.1" y="67.2" class="st2" width="5" height="5"/>
		<rect x="82.1" y="67.2" class="st2" width="5" height="5"/>
		<rect x="87.1" y="67.2" class="st2" width="5" height="5"/>
		<rect x="92.1" y="67.2" class="st2" width="5" height="5"/>
		<rect x="97.1" y="67.2" class="st2" width="5" height="5"/>
		<rect x="102.1" y="67.2" class="st2" width="5" height="5"/>
		<rect x="12.1" y="72.2" class="st2" width="5" height="5"/>
		<rect x="17.1" y="72.2" class="st2" width="5" height="5"/>
		<rect x="22.1" y="72.2" class="st2" width="5" height="5"/>
		<rect x="27.1" y="72.2" class="st2" width="5" height="5"/>
		<rect x="32.1" y="72.2" class="st2" width="5" height="5"/>
		<rect x="37.1" y="72.2" class="st2" width="5" height="5"/>
		<rect x="42.1" y="72.2" class="st2" width="5" height="5"/>
		<rect x="47.1" y="72.2" class="st2" width="5" height="5"/>
		<rect x="52.1" y="72.2" class="st2" width="5" height="5"/>
		<rect x="57.1" y="72.2" class="st2" width="5" height="5"/>
		<rect x="62.1" y="72.2" class="st2" width="5" height="5"/>
		<rect x="67.1" y="72.2" class="st2" width="5" height="5"/>
		<rect x="72.1" y="72.2" class="st2" width="5" height="5"/>
		<rect x="77.1" y="72.2" class="st2" width="5" height="5"/>
		<rect x="82.1" y="72.2" class="st2" width="5" height="5"/>
		<rect x="87.1" y="72.2" class="st2" width="5" height="5"/>
		<rect x="92.1" y="72.2" class="st2" width="5" height="5"/>
		<rect x="97.1" y="72.2" class="st2" width="5" height="5"/>
		<rect x="102.1" y="72.2" class="st2" width="5" height="5"/>
		<rect x="12.1" y="77.2" class="st2" width="5" height="5"/>
		<rect x="17.1" y="77.2" class="st2" width="5" height="5"/>
		<rect x="22.1" y="77.2" class="st2" width="5" height="5"/>
		<rect x="27.1" y="77.2" class="st2" width="5" height="5"/>
		<rect x="32.1" y="77.2" class="st2" width="5" height="5"/>
		<rect x="37.1" y="77.2" class="st2" width="5" height="5"/>
		<rect x="42.1" y="77.2" class="st2" width="5" height="5"/>
		<rect x="47.1" y="77.2" class="st2" width="5" height="5"/>
		<rect x="52.1" y="77.2" class="st2" width="5" height="5"/>
		<rect x="57.1" y="77.2" class="st2" width="5" height="5"/>
		<rect x="62.1" y="77.2" class="st2" width="5" height="5"/>
		<rect x="67.1" y="77.2" class="st2" width="5" height="5"/>
		<rect x="72.1" y="77.2" class="st2" width="5" height="5"/>
		<rect x="77.1" y="77.2" class="st2" width="5" height="5"/>
		<rect x="82.1" y="77.2" class="st2" width="5" height="5"/>
		<rect x="87.1" y="77.2" class="st2" width="5" height="5"/>
		<rect x="92.1" y="77.2" class="st2" width="5" height="5"/>
		<rect x="97.1" y="77.2" class="st2" width="5" height="5"/>
		<rect x="102.1" y="77.2" class="st2" width="5" height="5"/>
		<rect x="12.1" y="82.2" class="st2" width="5" height="5"/>
		<rect x="17.1" y="82.2" class="st2" width="5" height="5"/>
		<rect x="22.1" y="82.2" class="st2" width="5" height="5"/>
		<rect x="27.1" y="82.2" class="st2" width="5" height="5"/>
		<rect x="32.1" y="82.2" class="st2" width="5" height="5"/>
		<rect x="37.1" y="82.2" class="st2" width="5" height="5"/>
		<rect x="42.1" y="82.2" class="st2" width="5" height="5"/>
		<rect x="47.1" y="82.2" class="st2" width="5" height="5"/>
		<rect x="52.1" y="82.2" class="st2" width="5" height="5"/>
		<rect x="57.1" y="82.2" class="st2" width="5" height="5"/>
		<rect x="62.1" y="82.2" class="st2" width="5" height="5"/>
		<rect x="67.1" y="82.2" class="st2" width="5" height="5"/>
		<rect x="72.1" y="82.2" class="st2" width="5" height="5"/>
		<rect x="77.1" y="82.2" class="st2" width="5" height="5"/>
		<rect x="82.1" y="82.2" class="st2" width="5" height="5"/>
		<rect x="87.1" y="82.2" class="st2" width="5" height="5"/>
		<rect x="92.1" y="82.2" class="st2" width="5" height="5"/>
		<rect x="97.1" y="82.2" class="st2" width="5" height="5"/>
		<rect x="102.1" y="82.2" class="st2" width="5" height="5"/>
		<rect x="12.1" y="87.2" class="st2" width="5" height="5"/>
		<rect x="17.1" y="87.2" class="st2" width="5" height="5"/>
		<rect x="22.1" y="87.2" class="st2" width="5" height="5"/>
		<rect x="27.1" y="87.2" class="st2" width="5" height="5"/>
		<rect x="32.1" y="87.2" class="st2" width="5" height="5"/>
		<rect x="37.1" y="87.2" class="st2" width="5" height="5"/>
		<rect x="42.1" y="87.2" class="st2" width="5" height="5"/>
		<rect x="47.1" y="87.2" class="st2" width="5" height="5"/>
		<rect x="52.1" y="87.2" class="st2" width="5" height="5"/>
		<rect x="57.1" y="87.2" class="st2" width="5" height="5"/>
		<rect x="62.1" y="87.2" class="st2" width="5" height="5"/>
		<rect x="67.1" y="87.2" class="st2" width="5" height="5"/>
		<rect x="72.1" y="87.2" class="st2" width="5" height="5"/>
		<rect x="77.1" y="87.2" class="st2" width="5" height="5"/>
		<rect x="82.1" y="87.2" class="st2" width="5" height="5"/>
		<rect x="87.1" y="87.2" class="st2" width="5" height="5"/>
		<rect x="92.1" y="87.2" class="st2" width="5" height="5"/>
		<rect x="97.1" y="87.2" class="st2" width="5" height="5"/>
		<rect x="102.1" y="87.2" class="st2" width="5" height="5"/>
		<rect x="12.1" y="92.2" class="st2" width="5" height="5"/>
		<rect x="17.1" y="92.2" class="st2" width="5" height="5"/>
		<rect x="22.1" y="92.2" class="st2" width="5" height="5"/>
		<rect x="27.1" y="92.2" class="st2" width="5" height="5"/>
		<rect x="32.1" y="92.2" class="st2" width="5" height="5"/>
		<rect x="37.1" y="92.2" class="st2" width="5" height="5"/>
		<rect x="42.1" y="92.2" class="st2" width="5" height="5"/>
		<rect x="47.1" y="92.2" class="st2" width="5" height="5"/>
		<rect x="52.1" y="92.2" class="st2" width="5" height="5"/>
		<rect x="57.1" y="92.2" class="st2" width="5" height="5"/>
		<rect x="62.1" y="92.2" class="st2" width="5" height="5"/>
		<rect x="67.1" y="92.2" class="st2" width="5" height="5"/>
		<rect x="72.1" y="92.2" class="st2" width="5" height="5"/>
		<rect x="77.1" y="92.2" class="st2" width="5" height="5"/>
		<rect x="82.1" y="92.2" class="st2" width="5" height="5"/>
		<rect x="87.1" y="92.2" class="st2" width="5" height="5"/>
		<rect x="92.1" y="92.2" class="st2" width="5" height="5"/>
		<rect x="97.1" y="92.2" class="st2" width="5" height="5"/>
		<rect x="102.1" y="92.2" class="st2" width="5" height="5"/>
		<rect x="12.1" y="97.2" class="st2" width="5" height="5"/>
		<rect x="17.1" y="97.2" class="st2" width="5" height="5"/>
		<rect x="22.1" y="97.2" class="st2" width="5" height="5"/>
		<rect x="27.1" y="97.2" class="st2" width="5" height="5"/>
		<rect x="32.1" y="97.2" class="st2" width="5" height="5"/>
		<rect x="37.1" y="97.2" class="st2" width="5" height="5"/>
		<rect x="42.1" y="97.2" class="st2" width="5" height="5"/>
		<rect x="47.1" y="97.2" class="st2" width="5" height="5"/>
		<rect x="52.1" y="97.2" class="st2" width="5" height="5"/>
		<rect x="57.1" y="97.2" class="st2" width="5" height="5"/>
		<rect x="62.1" y="97.2" class="st2" width="5" height="5"/>
		<rect x="67.1" y="97.2" class="st2" width="5" height="5"/>
		<rect x="72.1" y="97.2" class="st2" width="5" height="5"/>
		<rect x="77.1" y="97.2" class="st2" width="5" height="5"/>
		<rect x="82.1" y="97.2" class="st2" width="5" height="5"/>
		<rect x="87.1" y="97.2" class="st2" width="5" height="5"/>
		<rect x="92.1" y="97.2" class="st2" width="5" height="5"/>
		<rect x="97.1" y="97.2" class="st2" width="5" height="5"/>
		<rect x="102.1" y="97.2" class="st2" width="5" height="5"/>
		<rect x="12.1" y="102.2" class="st2" width="5" height="5"/>
		<rect x="17.1" y="102.2" class="st2" width="5" height="5"/>
		<rect x="22.1" y="102.2" class="st2" width="5" height="5"/>
		<rect x="27.1" y="102.2" class="st2" width="5" height="5"/>
		<rect x="32.1" y="102.2" class="st2" width="5" height="5"/>
		<rect x="37.1" y="102.2" class="st2" width="5" height="5"/>
		<rect x="42.1" y="102.2" class="st2" width="5" height="5"/>
		<rect x="47.1" y="102.2" class="st2" width="5" height="5"/>
		<rect x="52.1" y="102.2" class="st2" width="5" height="5"/>
		<rect x="57.1" y="102.2" class="st2" width="5" height="5"/>
		<rect x="62.1" y="102.2" class="st2" width="5" height="5"/>
		<rect x="67.1" y="102.2" class="st2" width="5" height="5"/>
		<rect x="72.1" y="102.2" class="st2" width="5" height="5"/>
		<rect x="77.1" y="102.2" class="st2" width="5" height="5"/>
		<rect x="82.1" y="102.2" class="st2" width="5" height="5"/>
		<rect x="87.1" y="102.2" class="st2" width="5" height="5"/>
		<rect x="92.1" y="102.2" class="st2" width="5" height="5"/>
		<rect x="97.1" y="102.2" class="st2" width="5" height="5"/>
		<rect x="102.1" y="102.2" class="st2" width="5" height="5"/>
	</g>
</g>
<g id="Networking_2color-light_bk">
	<g id="Firewall_1_">
		<path class="st3" d="M58.8,81.6H33V67.3h27.5v10.4c0.6-1.1,1.5-3,2.5-5.1v-5.3h2.6c0.4-0.8,0.8-1.7,1.2-2.5H53.4V50.5h27.5v10.7
			l2.5-5.2v-5.5H86l1.2-2.5H68.7V33.8h27.5V48H95l0.8,1.7c0.1,0.3,0.3,0.5,0.4,0.8h7.2v14.3h-0.3c1.1,2.2,2.1,4.2,2.8,5.8v-3.3v-2.5
			V50.5V48V31.3H13V48v2.5v14.3v2.5v16.8h45.1C58.3,83.2,58.5,82.4,58.8,81.6z M98.7,33.8h4.8V48h-4.8V33.8z M50.9,64.8H23.4V50.5
			h27.5V64.8z M38.7,33.8h27.5V48H38.7V33.8z M15.5,33.8h20.6V48H15.5V33.8z M15.5,50.5h5.3v14.3h-5.3V50.5z M30.5,81.6H15.5V67.3
			h14.9V81.6z"/>
		<path class="st4" d="M91.1,103.4H73.9c-6.6,0-12.2-6.9-12.2-15c0-2.9,0.7-5.8,2-8.3c1.1-2.3,6.5-13.3,9.1-18.7
			c0.2-0.4,0.6-0.7,1.1-0.7c0,0,0,0,0,0c0.5,0,0.9,0.3,1.1,0.7l4.8,9.8c0.1,0.3,0.4,0.3,0.6,0L90,51.5c0.2-0.4,0.6-0.7,1.1-0.7
			c0,0,0,0,0,0c0.5,0,0.9,0.3,1.1,0.7c3.6,7.4,10,20.6,11.4,23.4c1.7,3,2.5,6.6,2.5,10.2C106.1,95.2,99.4,103.4,91.1,103.4z
			 M73.9,64.9c-2.8,5.7-7,14.3-8,16.4c-1.2,2.2-1.8,4.6-1.7,7.1c0,6.8,4.4,12.5,9.7,12.5h17.3c6.9,0,12.5-7.1,12.5-15.9
			c0.1-3.2-0.7-6.3-2.2-9c-1.3-2.6-6.7-13.6-10.3-21.1l-8.5,17.5c-0.5,1-1.5,1.7-2.5,1.7c-1.1,0-2-0.6-2.5-1.6L73.9,64.9z"/>
		<path class="st4" d="M75.9,98.4c-0.2,0-0.5-0.1-0.7-0.2c-5-3.2-3.8-10.4-1.8-14.1c0.2-0.4,0.6-0.6,1-0.7c0.4,0,0.9,0.2,1.1,0.5
			c0.8,1.1,3.4,4.2,5.5,4.3c0,0,0.1,0,0.1,0c3.4,0,5.4-3.5,7.5-12.8l0-0.2c0-0.5,0.3-0.9,0.7-1.1c0.4-0.2,0.9-0.2,1.3,0.1
			c4.8,3.7,8.2,13.6,2.2,22.8c-0.4,0.6-1.2,0.7-1.7,0.4c-0.6-0.4-0.7-1.2-0.4-1.7c4.8-7.3,2.7-14.4-0.1-17.9c-2,8.1-4.4,13-9.7,12.9
			c-2.4,0-4.7-2.1-6.1-3.6c-0.9,2.9-1.3,7,1.7,9c0.6,0.4,0.7,1.1,0.4,1.7C76.7,98.2,76.3,98.4,75.9,98.4z"/>
	</g>
</g>
</svg>
