<?xml version="1.0" encoding="utf-8"?>
<!-- Generator: Adobe Illustrator 25.1.0, SVG Export Plug-In . SVG Version: 6.00 Build 0)  -->
<svg version="1.1" xmlns="http://www.w3.org/2000/svg" xmlns:xlink="http://www.w3.org/1999/xlink" x="0px" y="0px"
	 viewBox="0 0 120 120" style="enable-background:new 0 0 120 120;" xml:space="preserve">
<title>Business Plan</title>
<metadata><?xpacket begin="﻿" id="W5M0MpCehiHzreSzNTczkc9d"?>
<x:xmpmeta xmlns:x="adobe:ns:meta/" x:xmptk="Adobe XMP Core 6.0-c002 79.164488, 2020/07/10-22:06:53        ">
   <rdf:RDF xmlns:rdf="http://www.w3.org/1999/02/22-rdf-syntax-ns#">
      <rdf:Description rdf:about=""
            xmlns:xmp="http://ns.adobe.com/xap/1.0/"
            xmlns:xmpMM="http://ns.adobe.com/xap/1.0/mm/"
            xmlns:stEvt="http://ns.adobe.com/xap/1.0/sType/ResourceEvent#"
            xmlns:lr="http://ns.adobe.com/lightroom/1.0/"
            xmlns:dc="http://purl.org/dc/elements/1.1/">
         <xmp:MetadataDate>2021-02-15T15:52:01-06:00</xmp:MetadataDate>
         <xmpMM:InstanceID>xmp.iid:a5425ec3-445b-4c36-83c2-4eaf9ee180be</xmpMM:InstanceID>
         <xmpMM:DocumentID>xmp.did:12282e7f-99f2-4435-86ec-af892e8fce48</xmpMM:DocumentID>
         <xmpMM:OriginalDocumentID>xmp.did:12282e7f-99f2-4435-86ec-af892e8fce48</xmpMM:OriginalDocumentID>
         <xmpMM:History>
            <rdf:Seq>
               <rdf:li>
                  <rdf:Description>
                     <stEvt:action>saved</stEvt:action>
                     <stEvt:instanceID>xmp.iid:12282e7f-99f2-4435-86ec-af892e8fce48</stEvt:instanceID>
                     <stEvt:when>2021-02-15T14:51:01-06:00</stEvt:when>
                     <stEvt:softwareAgent>Adobe Bridge 2021 (Macintosh)</stEvt:softwareAgent>
                     <stEvt:changed>/metadata</stEvt:changed>
                  </rdf:Description>
               </rdf:li>
               <rdf:li>
                  <rdf:Description>
                     <stEvt:action>saved</stEvt:action>
                     <stEvt:instanceID>xmp.iid:a5425ec3-445b-4c36-83c2-4eaf9ee180be</stEvt:instanceID>
                     <stEvt:when>2021-02-15T15:52:01-06:00</stEvt:when>
                     <stEvt:softwareAgent>Adobe Bridge 2021 (Macintosh)</stEvt:softwareAgent>
                     <stEvt:changed>/metadata</stEvt:changed>
                  </rdf:Description>
               </rdf:li>
            </rdf:Seq>
         </xmpMM:History>
         <lr:hierarchicalSubject>
            <rdf:Bag>
               <rdf:li>Category names|Business</rdf:li>
               <rdf:li>Color[JW2]|2-Color</rdf:li>
               <rdf:li>Color[JW2]|Light Background</rdf:li>
               <rdf:li>General[JW1]|Success</rdf:li>
               <rdf:li>General[JW1]|Process</rdf:li>
               <rdf:li>General[JW1]|Arrow</rdf:li>
            </rdf:Bag>
         </lr:hierarchicalSubject>
         <dc:subject>
            <rdf:Bag>
               <rdf:li>Business</rdf:li>
               <rdf:li>Icon</rdf:li>
               <rdf:li>2-Color</rdf:li>
               <rdf:li>Light Background</rdf:li>
               <rdf:li>Success</rdf:li>
               <rdf:li>Process</rdf:li>
               <rdf:li>Arrow</rdf:li>
            </rdf:Bag>
         </dc:subject>
         <dc:title>
            <rdf:Alt>
               <rdf:li xml:lang="x-default">Business Plan</rdf:li>
            </rdf:Alt>
         </dc:title>
      </rdf:Description>
   </rdf:RDF>
</x:xmpmeta>
                                                                                                    
                                                                                                    
                                                                                                    
                                                                                                    
                                                                                                    
                                                                                                    
                                                                                                    
                                                                                                    
                                                                 
<?xpacket end="w"?></metadata>
<style type="text/css">
	.st0{display:none;}
	.st1{display:inline;}
	.st2{fill:#FFFFFF;stroke:#EC008C;stroke-width:0.1;stroke-miterlimit:10;}
	.st3{fill:#1D428A;}
	.st4{fill:#0091DA;}
</style>
<g id="_x39_5x95_Grids" class="st0">
	<g class="st1">
		<rect x="11.8" y="12" class="st2" width="5" height="5"/>
		<rect x="16.8" y="12" class="st2" width="5" height="5"/>
		<rect x="21.8" y="12" class="st2" width="5" height="5"/>
		<rect x="26.8" y="12" class="st2" width="5" height="5"/>
		<rect x="31.8" y="12" class="st2" width="5" height="5"/>
		<rect x="36.8" y="12" class="st2" width="5" height="5"/>
		<rect x="41.8" y="12" class="st2" width="5" height="5"/>
		<rect x="46.8" y="12" class="st2" width="5" height="5"/>
		<rect x="51.8" y="12" class="st2" width="5" height="5"/>
		<rect x="56.8" y="12" class="st2" width="5" height="5"/>
		<rect x="61.8" y="12" class="st2" width="5" height="5"/>
		<rect x="66.8" y="12" class="st2" width="5" height="5"/>
		<rect x="71.8" y="12" class="st2" width="5" height="5"/>
		<rect x="76.8" y="12" class="st2" width="5" height="5"/>
		<rect x="81.8" y="12" class="st2" width="5" height="5"/>
		<rect x="86.8" y="12" class="st2" width="5" height="5"/>
		<rect x="91.8" y="12" class="st2" width="5" height="5"/>
		<rect x="96.8" y="12" class="st2" width="5" height="5"/>
		<rect x="101.8" y="12" class="st2" width="5" height="5"/>
		<rect x="11.8" y="17" class="st2" width="5" height="5"/>
		<rect x="16.8" y="17" class="st2" width="5" height="5"/>
		<rect x="21.8" y="17" class="st2" width="5" height="5"/>
		<rect x="26.8" y="17" class="st2" width="5" height="5"/>
		<rect x="31.8" y="17" class="st2" width="5" height="5"/>
		<rect x="36.8" y="17" class="st2" width="5" height="5"/>
		<rect x="41.8" y="17" class="st2" width="5" height="5"/>
		<rect x="46.8" y="17" class="st2" width="5" height="5"/>
		<rect x="51.8" y="17" class="st2" width="5" height="5"/>
		<rect x="56.8" y="17" class="st2" width="5" height="5"/>
		<rect x="61.8" y="17" class="st2" width="5" height="5"/>
		<rect x="66.8" y="17" class="st2" width="5" height="5"/>
		<rect x="71.8" y="17" class="st2" width="5" height="5"/>
		<rect x="76.8" y="17" class="st2" width="5" height="5"/>
		<rect x="81.8" y="17" class="st2" width="5" height="5"/>
		<rect x="86.8" y="17" class="st2" width="5" height="5"/>
		<rect x="91.8" y="17" class="st2" width="5" height="5"/>
		<rect x="96.8" y="17" class="st2" width="5" height="5"/>
		<rect x="101.8" y="17" class="st2" width="5" height="5"/>
		<rect x="11.8" y="22" class="st2" width="5" height="5"/>
		<rect x="16.8" y="22" class="st2" width="5" height="5"/>
		<rect x="21.8" y="22" class="st2" width="5" height="5"/>
		<rect x="26.8" y="22" class="st2" width="5" height="5"/>
		<rect x="31.8" y="22" class="st2" width="5" height="5"/>
		<rect x="36.8" y="22" class="st2" width="5" height="5"/>
		<rect x="41.8" y="22" class="st2" width="5" height="5"/>
		<rect x="46.8" y="22" class="st2" width="5" height="5"/>
		<rect x="51.8" y="22" class="st2" width="5" height="5"/>
		<rect x="56.8" y="22" class="st2" width="5" height="5"/>
		<rect x="61.8" y="22" class="st2" width="5" height="5"/>
		<rect x="66.8" y="22" class="st2" width="5" height="5"/>
		<rect x="71.8" y="22" class="st2" width="5" height="5"/>
		<rect x="76.8" y="22" class="st2" width="5" height="5"/>
		<rect x="81.8" y="22" class="st2" width="5" height="5"/>
		<rect x="86.8" y="22" class="st2" width="5" height="5"/>
		<rect x="91.8" y="22" class="st2" width="5" height="5"/>
		<rect x="96.8" y="22" class="st2" width="5" height="5"/>
		<rect x="101.8" y="22" class="st2" width="5" height="5"/>
		<rect x="11.8" y="27" class="st2" width="5" height="5"/>
		<rect x="16.8" y="27" class="st2" width="5" height="5"/>
		<rect x="21.8" y="27" class="st2" width="5" height="5"/>
		<rect x="26.8" y="27" class="st2" width="5" height="5"/>
		<rect x="31.8" y="27" class="st2" width="5" height="5"/>
		<rect x="36.8" y="27" class="st2" width="5" height="5"/>
		<rect x="41.8" y="27" class="st2" width="5" height="5"/>
		<rect x="46.8" y="27" class="st2" width="5" height="5"/>
		<rect x="51.8" y="27" class="st2" width="5" height="5"/>
		<rect x="56.8" y="27" class="st2" width="5" height="5"/>
		<rect x="61.8" y="27" class="st2" width="5" height="5"/>
		<rect x="66.8" y="27" class="st2" width="5" height="5"/>
		<rect x="71.8" y="27" class="st2" width="5" height="5"/>
		<rect x="76.8" y="27" class="st2" width="5" height="5"/>
		<rect x="81.8" y="27" class="st2" width="5" height="5"/>
		<rect x="86.8" y="27" class="st2" width="5" height="5"/>
		<rect x="91.8" y="27" class="st2" width="5" height="5"/>
		<rect x="96.8" y="27" class="st2" width="5" height="5"/>
		<rect x="101.8" y="27" class="st2" width="5" height="5"/>
		<rect x="11.8" y="32" class="st2" width="5" height="5"/>
		<rect x="16.8" y="32" class="st2" width="5" height="5"/>
		<rect x="21.8" y="32" class="st2" width="5" height="5"/>
		<rect x="26.8" y="32" class="st2" width="5" height="5"/>
		<rect x="31.8" y="32" class="st2" width="5" height="5"/>
		<rect x="36.8" y="32" class="st2" width="5" height="5"/>
		<rect x="41.8" y="32" class="st2" width="5" height="5"/>
		<rect x="46.8" y="32" class="st2" width="5" height="5"/>
		<rect x="51.8" y="32" class="st2" width="5" height="5"/>
		<rect x="56.8" y="32" class="st2" width="5" height="5"/>
		<rect x="61.8" y="32" class="st2" width="5" height="5"/>
		<rect x="66.8" y="32" class="st2" width="5" height="5"/>
		<rect x="71.8" y="32" class="st2" width="5" height="5"/>
		<rect x="76.8" y="32" class="st2" width="5" height="5"/>
		<rect x="81.8" y="32" class="st2" width="5" height="5"/>
		<rect x="86.8" y="32" class="st2" width="5" height="5"/>
		<rect x="91.8" y="32" class="st2" width="5" height="5"/>
		<rect x="96.8" y="32" class="st2" width="5" height="5"/>
		<rect x="101.8" y="32" class="st2" width="5" height="5"/>
		<rect x="11.8" y="37" class="st2" width="5" height="5"/>
		<rect x="16.8" y="37" class="st2" width="5" height="5"/>
		<rect x="21.8" y="37" class="st2" width="5" height="5"/>
		<rect x="26.8" y="37" class="st2" width="5" height="5"/>
		<rect x="31.8" y="37" class="st2" width="5" height="5"/>
		<rect x="36.8" y="37" class="st2" width="5" height="5"/>
		<rect x="41.8" y="37" class="st2" width="5" height="5"/>
		<rect x="46.8" y="37" class="st2" width="5" height="5"/>
		<rect x="51.8" y="37" class="st2" width="5" height="5"/>
		<rect x="56.8" y="37" class="st2" width="5" height="5"/>
		<rect x="61.8" y="37" class="st2" width="5" height="5"/>
		<rect x="66.8" y="37" class="st2" width="5" height="5"/>
		<rect x="71.8" y="37" class="st2" width="5" height="5"/>
		<rect x="76.8" y="37" class="st2" width="5" height="5"/>
		<rect x="81.8" y="37" class="st2" width="5" height="5"/>
		<rect x="86.8" y="37" class="st2" width="5" height="5"/>
		<rect x="91.8" y="37" class="st2" width="5" height="5"/>
		<rect x="96.8" y="37" class="st2" width="5" height="5"/>
		<rect x="101.8" y="37" class="st2" width="5" height="5"/>
		<rect x="11.8" y="42" class="st2" width="5" height="5"/>
		<rect x="16.8" y="42" class="st2" width="5" height="5"/>
		<rect x="21.8" y="42" class="st2" width="5" height="5"/>
		<rect x="26.8" y="42" class="st2" width="5" height="5"/>
		<rect x="31.8" y="42" class="st2" width="5" height="5"/>
		<rect x="36.8" y="42" class="st2" width="5" height="5"/>
		<rect x="41.8" y="42" class="st2" width="5" height="5"/>
		<rect x="46.8" y="42" class="st2" width="5" height="5"/>
		<rect x="51.8" y="42" class="st2" width="5" height="5"/>
		<rect x="56.8" y="42" class="st2" width="5" height="5"/>
		<rect x="61.8" y="42" class="st2" width="5" height="5"/>
		<rect x="66.8" y="42" class="st2" width="5" height="5"/>
		<rect x="71.8" y="42" class="st2" width="5" height="5"/>
		<rect x="76.8" y="42" class="st2" width="5" height="5"/>
		<rect x="81.8" y="42" class="st2" width="5" height="5"/>
		<rect x="86.8" y="42" class="st2" width="5" height="5"/>
		<rect x="91.8" y="42" class="st2" width="5" height="5"/>
		<rect x="96.8" y="42" class="st2" width="5" height="5"/>
		<rect x="101.8" y="42" class="st2" width="5" height="5"/>
		<rect x="11.8" y="47" class="st2" width="5" height="5"/>
		<rect x="16.8" y="47" class="st2" width="5" height="5"/>
		<rect x="21.8" y="47" class="st2" width="5" height="5"/>
		<rect x="26.8" y="47" class="st2" width="5" height="5"/>
		<rect x="31.8" y="47" class="st2" width="5" height="5"/>
		<rect x="36.8" y="47" class="st2" width="5" height="5"/>
		<rect x="41.8" y="47" class="st2" width="5" height="5"/>
		<rect x="46.8" y="47" class="st2" width="5" height="5"/>
		<rect x="51.8" y="47" class="st2" width="5" height="5"/>
		<rect x="56.8" y="47" class="st2" width="5" height="5"/>
		<rect x="61.8" y="47" class="st2" width="5" height="5"/>
		<rect x="66.8" y="47" class="st2" width="5" height="5"/>
		<rect x="71.8" y="47" class="st2" width="5" height="5"/>
		<rect x="76.8" y="47" class="st2" width="5" height="5"/>
		<rect x="81.8" y="47" class="st2" width="5" height="5"/>
		<rect x="86.8" y="47" class="st2" width="5" height="5"/>
		<rect x="91.8" y="47" class="st2" width="5" height="5"/>
		<rect x="96.8" y="47" class="st2" width="5" height="5"/>
		<rect x="101.8" y="47" class="st2" width="5" height="5"/>
		<rect x="11.8" y="52" class="st2" width="5" height="5"/>
		<rect x="16.8" y="52" class="st2" width="5" height="5"/>
		<rect x="21.8" y="52" class="st2" width="5" height="5"/>
		<rect x="26.8" y="52" class="st2" width="5" height="5"/>
		<rect x="31.8" y="52" class="st2" width="5" height="5"/>
		<rect x="36.8" y="52" class="st2" width="5" height="5"/>
		<rect x="41.8" y="52" class="st2" width="5" height="5"/>
		<rect x="46.8" y="52" class="st2" width="5" height="5"/>
		<rect x="51.8" y="52" class="st2" width="5" height="5"/>
		<rect x="56.8" y="52" class="st2" width="5" height="5"/>
		<rect x="61.8" y="52" class="st2" width="5" height="5"/>
		<rect x="66.8" y="52" class="st2" width="5" height="5"/>
		<rect x="71.8" y="52" class="st2" width="5" height="5"/>
		<rect x="76.8" y="52" class="st2" width="5" height="5"/>
		<rect x="81.8" y="52" class="st2" width="5" height="5"/>
		<rect x="86.8" y="52" class="st2" width="5" height="5"/>
		<rect x="91.8" y="52" class="st2" width="5" height="5"/>
		<rect x="96.8" y="52" class="st2" width="5" height="5"/>
		<rect x="101.8" y="52" class="st2" width="5" height="5"/>
		<rect x="11.8" y="57" class="st2" width="5" height="5"/>
		<rect x="16.8" y="57" class="st2" width="5" height="5"/>
		<rect x="21.8" y="57" class="st2" width="5" height="5"/>
		<rect x="26.8" y="57" class="st2" width="5" height="5"/>
		<rect x="31.8" y="57" class="st2" width="5" height="5"/>
		<rect x="36.8" y="57" class="st2" width="5" height="5"/>
		<rect x="41.8" y="57" class="st2" width="5" height="5"/>
		<rect x="46.8" y="57" class="st2" width="5" height="5"/>
		<rect x="51.8" y="57" class="st2" width="5" height="5"/>
		<rect x="56.8" y="57" class="st2" width="5" height="5"/>
		<rect x="61.8" y="57" class="st2" width="5" height="5"/>
		<rect x="66.8" y="57" class="st2" width="5" height="5"/>
		<rect x="71.8" y="57" class="st2" width="5" height="5"/>
		<rect x="76.8" y="57" class="st2" width="5" height="5"/>
		<rect x="81.8" y="57" class="st2" width="5" height="5"/>
		<rect x="86.8" y="57" class="st2" width="5" height="5"/>
		<rect x="91.8" y="57" class="st2" width="5" height="5"/>
		<rect x="96.8" y="57" class="st2" width="5" height="5"/>
		<rect x="101.8" y="57" class="st2" width="5" height="5"/>
		<rect x="11.8" y="62" class="st2" width="5" height="5"/>
		<rect x="16.8" y="62" class="st2" width="5" height="5"/>
		<rect x="21.8" y="62" class="st2" width="5" height="5"/>
		<rect x="26.8" y="62" class="st2" width="5" height="5"/>
		<rect x="31.8" y="62" class="st2" width="5" height="5"/>
		<rect x="36.8" y="62" class="st2" width="5" height="5"/>
		<rect x="41.8" y="62" class="st2" width="5" height="5"/>
		<rect x="46.8" y="62" class="st2" width="5" height="5"/>
		<rect x="51.8" y="62" class="st2" width="5" height="5"/>
		<rect x="56.8" y="62" class="st2" width="5" height="5"/>
		<rect x="61.8" y="62" class="st2" width="5" height="5"/>
		<rect x="66.8" y="62" class="st2" width="5" height="5"/>
		<rect x="71.8" y="62" class="st2" width="5" height="5"/>
		<rect x="76.8" y="62" class="st2" width="5" height="5"/>
		<rect x="81.8" y="62" class="st2" width="5" height="5"/>
		<rect x="86.8" y="62" class="st2" width="5" height="5"/>
		<rect x="91.8" y="62" class="st2" width="5" height="5"/>
		<rect x="96.8" y="62" class="st2" width="5" height="5"/>
		<rect x="101.8" y="62" class="st2" width="5" height="5"/>
		<rect x="11.8" y="67" class="st2" width="5" height="5"/>
		<rect x="16.8" y="67" class="st2" width="5" height="5"/>
		<rect x="21.8" y="67" class="st2" width="5" height="5"/>
		<rect x="26.8" y="67" class="st2" width="5" height="5"/>
		<rect x="31.8" y="67" class="st2" width="5" height="5"/>
		<rect x="36.8" y="67" class="st2" width="5" height="5"/>
		<rect x="41.8" y="67" class="st2" width="5" height="5"/>
		<rect x="46.8" y="67" class="st2" width="5" height="5"/>
		<rect x="51.8" y="67" class="st2" width="5" height="5"/>
		<rect x="56.8" y="67" class="st2" width="5" height="5"/>
		<rect x="61.8" y="67" class="st2" width="5" height="5"/>
		<rect x="66.8" y="67" class="st2" width="5" height="5"/>
		<rect x="71.8" y="67" class="st2" width="5" height="5"/>
		<rect x="76.8" y="67" class="st2" width="5" height="5"/>
		<rect x="81.8" y="67" class="st2" width="5" height="5"/>
		<rect x="86.8" y="67" class="st2" width="5" height="5"/>
		<rect x="91.8" y="67" class="st2" width="5" height="5"/>
		<rect x="96.8" y="67" class="st2" width="5" height="5"/>
		<rect x="101.8" y="67" class="st2" width="5" height="5"/>
		<rect x="11.8" y="72" class="st2" width="5" height="5"/>
		<rect x="16.8" y="72" class="st2" width="5" height="5"/>
		<rect x="21.8" y="72" class="st2" width="5" height="5"/>
		<rect x="26.8" y="72" class="st2" width="5" height="5"/>
		<rect x="31.8" y="72" class="st2" width="5" height="5"/>
		<rect x="36.8" y="72" class="st2" width="5" height="5"/>
		<rect x="41.8" y="72" class="st2" width="5" height="5"/>
		<rect x="46.8" y="72" class="st2" width="5" height="5"/>
		<rect x="51.8" y="72" class="st2" width="5" height="5"/>
		<rect x="56.8" y="72" class="st2" width="5" height="5"/>
		<rect x="61.8" y="72" class="st2" width="5" height="5"/>
		<rect x="66.8" y="72" class="st2" width="5" height="5"/>
		<rect x="71.8" y="72" class="st2" width="5" height="5"/>
		<rect x="76.8" y="72" class="st2" width="5" height="5"/>
		<rect x="81.8" y="72" class="st2" width="5" height="5"/>
		<rect x="86.8" y="72" class="st2" width="5" height="5"/>
		<rect x="91.8" y="72" class="st2" width="5" height="5"/>
		<rect x="96.8" y="72" class="st2" width="5" height="5"/>
		<rect x="101.8" y="72" class="st2" width="5" height="5"/>
		<rect x="11.8" y="77" class="st2" width="5" height="5"/>
		<rect x="16.8" y="77" class="st2" width="5" height="5"/>
		<rect x="21.8" y="77" class="st2" width="5" height="5"/>
		<rect x="26.8" y="77" class="st2" width="5" height="5"/>
		<rect x="31.8" y="77" class="st2" width="5" height="5"/>
		<rect x="36.8" y="77" class="st2" width="5" height="5"/>
		<rect x="41.8" y="77" class="st2" width="5" height="5"/>
		<rect x="46.8" y="77" class="st2" width="5" height="5"/>
		<rect x="51.8" y="77" class="st2" width="5" height="5"/>
		<rect x="56.8" y="77" class="st2" width="5" height="5"/>
		<rect x="61.8" y="77" class="st2" width="5" height="5"/>
		<rect x="66.8" y="77" class="st2" width="5" height="5"/>
		<rect x="71.8" y="77" class="st2" width="5" height="5"/>
		<rect x="76.8" y="77" class="st2" width="5" height="5"/>
		<rect x="81.8" y="77" class="st2" width="5" height="5"/>
		<rect x="86.8" y="77" class="st2" width="5" height="5"/>
		<rect x="91.8" y="77" class="st2" width="5" height="5"/>
		<rect x="96.8" y="77" class="st2" width="5" height="5"/>
		<rect x="101.8" y="77" class="st2" width="5" height="5"/>
		<rect x="11.8" y="82" class="st2" width="5" height="5"/>
		<rect x="16.8" y="82" class="st2" width="5" height="5"/>
		<rect x="21.8" y="82" class="st2" width="5" height="5"/>
		<rect x="26.8" y="82" class="st2" width="5" height="5"/>
		<rect x="31.8" y="82" class="st2" width="5" height="5"/>
		<rect x="36.8" y="82" class="st2" width="5" height="5"/>
		<rect x="41.8" y="82" class="st2" width="5" height="5"/>
		<rect x="46.8" y="82" class="st2" width="5" height="5"/>
		<rect x="51.8" y="82" class="st2" width="5" height="5"/>
		<rect x="56.8" y="82" class="st2" width="5" height="5"/>
		<rect x="61.8" y="82" class="st2" width="5" height="5"/>
		<rect x="66.8" y="82" class="st2" width="5" height="5"/>
		<rect x="71.8" y="82" class="st2" width="5" height="5"/>
		<rect x="76.8" y="82" class="st2" width="5" height="5"/>
		<rect x="81.8" y="82" class="st2" width="5" height="5"/>
		<rect x="86.8" y="82" class="st2" width="5" height="5"/>
		<rect x="91.8" y="82" class="st2" width="5" height="5"/>
		<rect x="96.8" y="82" class="st2" width="5" height="5"/>
		<rect x="101.8" y="82" class="st2" width="5" height="5"/>
		<rect x="11.8" y="87" class="st2" width="5" height="5"/>
		<rect x="16.8" y="87" class="st2" width="5" height="5"/>
		<rect x="21.8" y="87" class="st2" width="5" height="5"/>
		<rect x="26.8" y="87" class="st2" width="5" height="5"/>
		<rect x="31.8" y="87" class="st2" width="5" height="5"/>
		<rect x="36.8" y="87" class="st2" width="5" height="5"/>
		<rect x="41.8" y="87" class="st2" width="5" height="5"/>
		<rect x="46.8" y="87" class="st2" width="5" height="5"/>
		<rect x="51.8" y="87" class="st2" width="5" height="5"/>
		<rect x="56.8" y="87" class="st2" width="5" height="5"/>
		<rect x="61.8" y="87" class="st2" width="5" height="5"/>
		<rect x="66.8" y="87" class="st2" width="5" height="5"/>
		<rect x="71.8" y="87" class="st2" width="5" height="5"/>
		<rect x="76.8" y="87" class="st2" width="5" height="5"/>
		<rect x="81.8" y="87" class="st2" width="5" height="5"/>
		<rect x="86.8" y="87" class="st2" width="5" height="5"/>
		<rect x="91.8" y="87" class="st2" width="5" height="5"/>
		<rect x="96.8" y="87" class="st2" width="5" height="5"/>
		<rect x="101.8" y="87" class="st2" width="5" height="5"/>
		<rect x="11.8" y="92" class="st2" width="5" height="5"/>
		<rect x="16.8" y="92" class="st2" width="5" height="5"/>
		<rect x="21.8" y="92" class="st2" width="5" height="5"/>
		<rect x="26.8" y="92" class="st2" width="5" height="5"/>
		<rect x="31.8" y="92" class="st2" width="5" height="5"/>
		<rect x="36.8" y="92" class="st2" width="5" height="5"/>
		<rect x="41.8" y="92" class="st2" width="5" height="5"/>
		<rect x="46.8" y="92" class="st2" width="5" height="5"/>
		<rect x="51.8" y="92" class="st2" width="5" height="5"/>
		<rect x="56.8" y="92" class="st2" width="5" height="5"/>
		<rect x="61.8" y="92" class="st2" width="5" height="5"/>
		<rect x="66.8" y="92" class="st2" width="5" height="5"/>
		<rect x="71.8" y="92" class="st2" width="5" height="5"/>
		<rect x="76.8" y="92" class="st2" width="5" height="5"/>
		<rect x="81.8" y="92" class="st2" width="5" height="5"/>
		<rect x="86.8" y="92" class="st2" width="5" height="5"/>
		<rect x="91.8" y="92" class="st2" width="5" height="5"/>
		<rect x="96.8" y="92" class="st2" width="5" height="5"/>
		<rect x="101.8" y="92" class="st2" width="5" height="5"/>
		<rect x="11.8" y="97" class="st2" width="5" height="5"/>
		<rect x="16.8" y="97" class="st2" width="5" height="5"/>
		<rect x="21.8" y="97" class="st2" width="5" height="5"/>
		<rect x="26.8" y="97" class="st2" width="5" height="5"/>
		<rect x="31.8" y="97" class="st2" width="5" height="5"/>
		<rect x="36.8" y="97" class="st2" width="5" height="5"/>
		<rect x="41.8" y="97" class="st2" width="5" height="5"/>
		<rect x="46.8" y="97" class="st2" width="5" height="5"/>
		<rect x="51.8" y="97" class="st2" width="5" height="5"/>
		<rect x="56.8" y="97" class="st2" width="5" height="5"/>
		<rect x="61.8" y="97" class="st2" width="5" height="5"/>
		<rect x="66.8" y="97" class="st2" width="5" height="5"/>
		<rect x="71.8" y="97" class="st2" width="5" height="5"/>
		<rect x="76.8" y="97" class="st2" width="5" height="5"/>
		<rect x="81.8" y="97" class="st2" width="5" height="5"/>
		<rect x="86.8" y="97" class="st2" width="5" height="5"/>
		<rect x="91.8" y="97" class="st2" width="5" height="5"/>
		<rect x="96.8" y="97" class="st2" width="5" height="5"/>
		<rect x="101.8" y="97" class="st2" width="5" height="5"/>
		<rect x="11.8" y="102" class="st2" width="5" height="5"/>
		<rect x="16.8" y="102" class="st2" width="5" height="5"/>
		<rect x="21.8" y="102" class="st2" width="5" height="5"/>
		<rect x="26.8" y="102" class="st2" width="5" height="5"/>
		<rect x="31.8" y="102" class="st2" width="5" height="5"/>
		<rect x="36.8" y="102" class="st2" width="5" height="5"/>
		<rect x="41.8" y="102" class="st2" width="5" height="5"/>
		<rect x="46.8" y="102" class="st2" width="5" height="5"/>
		<rect x="51.8" y="102" class="st2" width="5" height="5"/>
		<rect x="56.8" y="102" class="st2" width="5" height="5"/>
		<rect x="61.8" y="102" class="st2" width="5" height="5"/>
		<rect x="66.8" y="102" class="st2" width="5" height="5"/>
		<rect x="71.8" y="102" class="st2" width="5" height="5"/>
		<rect x="76.8" y="102" class="st2" width="5" height="5"/>
		<rect x="81.8" y="102" class="st2" width="5" height="5"/>
		<rect x="86.8" y="102" class="st2" width="5" height="5"/>
		<rect x="91.8" y="102" class="st2" width="5" height="5"/>
		<rect x="96.8" y="102" class="st2" width="5" height="5"/>
		<rect x="101.8" y="102" class="st2" width="5" height="5"/>
	</g>
</g>
<g id="Business_2color-light_bk">
	<g id="Business_Plan_1_">
		<path class="st3" d="M104.7,19.5v60h-90v-60H104.7 M107.2,17h-95v65h95V17L107.2,17z"/>
		<g>
			<rect x="59.6" y="80.9" class="st3" width="2.5" height="13.6"/>
		</g>
		<g>
			<path class="st3" d="M60.7,102c-2.8,0-5-2.2-5-5h2.5c0,1.4,1.1,2.5,2.5,2.5s2.5-1.1,2.5-2.5s-1.1-2.5-2.5-2.5V92c2.8,0,5,2.2,5,5
				S63.4,102,60.7,102z"/>
		</g>
		<g>
			<rect x="47" y="71.3" class="st4" width="50" height="2.5"/>
		</g>
		<g>
			<rect x="91.9" y="41.3" class="st4" width="2.5" height="31.2"/>
		</g>
		<g>
			<rect x="81.4" y="48.7" class="st4" width="2.5" height="23.6"/>
		</g>
		<g>
			<rect x="71.6" y="55.1" class="st4" width="2.5" height="17"/>
		</g>
		<g>
			<rect x="61.9" y="61.7" class="st4" width="2.5" height="10.4"/>
		</g>
		<g>
			<rect x="51.6" y="68.4" class="st4" width="2.5" height="4.1"/>
		</g>
		<g>
			<rect x="22.1" y="26.7" class="st4" width="30" height="2.5"/>
		</g>
		<g>
			<rect x="22.1" y="37.7" class="st4" width="20" height="2.5"/>
		</g>
		<g>
			<g>
				
					<rect x="42" y="46.2" transform="matrix(0.8297 -0.5582 0.5582 0.8297 -15.0462 45.5399)" class="st4" width="50.3" height="2.5"/>
			</g>
			<g>
				<polygon class="st4" points="89.5,38 93.6,29.6 84.2,30.3 				"/>
			</g>
		</g>
	</g>
</g>
</svg>
